<svg xmlns="http://www.w3.org/2000/svg" xmlns:xlink="http://www.w3.org/1999/xlink" width="500" zoomAndPan="magnify" viewBox="0 0 375 112.499997" height="150" preserveAspectRatio="xMidYMid meet" version="1.0"><defs><g/><clipPath id="35a9497159"><path d="M 40.277344 11.199219 L 117.1875 11.199219 L 117.1875 88.109375 L 40.277344 88.109375 Z M 40.277344 11.199219 " clip-rule="nonzero"/></clipPath><clipPath id="f667d51199"><path d="M 12.03125 48.191406 L 24 48.191406 L 24 91 L 12.03125 91 Z M 12.03125 48.191406 " clip-rule="nonzero"/></clipPath><clipPath id="879617a838"><path d="M 48 75 L 110.59375 75 L 110.59375 95.902344 L 48 95.902344 Z M 48 75 " clip-rule="nonzero"/></clipPath><clipPath id="f0c947dc47"><path d="M 22 48.191406 L 57 48.191406 L 57 68 L 22 68 Z M 22 48.191406 " clip-rule="nonzero"/></clipPath><clipPath id="5a7e3570f2"><path d="M 20 48.191406 L 83 48.191406 L 83 81 L 20 81 Z M 20 48.191406 " clip-rule="nonzero"/></clipPath><clipPath id="e52f260bca"><path d="M 93.238281 75 L 119.371094 75 L 119.371094 88.515625 L 93.238281 88.515625 Z M 93.238281 75 " clip-rule="nonzero"/></clipPath><clipPath id="7a76226e5c"><path d="M 93.238281 57 L 106 57 L 106 88.515625 L 93.238281 88.515625 Z M 93.238281 57 " clip-rule="nonzero"/></clipPath><clipPath id="8ed3e4a02f"><path d="M 104.109375 75 L 130.242188 75 L 130.242188 88.515625 L 104.109375 88.515625 Z M 104.109375 75 " clip-rule="nonzero"/></clipPath><clipPath id="5263f62437"><path d="M 104.109375 57 L 117 57 L 117 88.515625 L 104.109375 88.515625 Z M 104.109375 57 " clip-rule="nonzero"/></clipPath><clipPath id="ef84ada4d5"><path d="M 116.039062 59.378906 L 153.375 59.378906 L 153.375 78.046875 L 116.039062 78.046875 Z M 116.039062 59.378906 " clip-rule="nonzero"/></clipPath></defs><g clip-path="url(#35a9497159)"><path fill="#bdd5ea" d="M 117.1875 49.65625 C 117.1875 50.914062 117.125 52.171875 117 53.421875 C 116.878906 54.675781 116.691406 55.921875 116.449219 57.15625 C 116.203125 58.390625 115.894531 59.613281 115.53125 60.816406 C 115.164062 62.023438 114.742188 63.207031 114.257812 64.371094 C 113.777344 65.535156 113.238281 66.671875 112.644531 67.78125 C 112.050781 68.890625 111.40625 69.972656 110.707031 71.019531 C 110.007812 72.066406 109.257812 73.074219 108.457031 74.050781 C 107.660156 75.023438 106.8125 75.953125 105.921875 76.84375 C 105.03125 77.734375 104.101562 78.582031 103.128906 79.378906 C 102.152344 80.179688 101.144531 80.929688 100.097656 81.628906 C 99.050781 82.328125 97.96875 82.972656 96.859375 83.566406 C 95.75 84.160156 94.613281 84.699219 93.449219 85.179688 C 92.285156 85.664062 91.101562 86.085938 89.894531 86.453125 C 88.691406 86.816406 87.46875 87.125 86.234375 87.371094 C 85 87.613281 83.753906 87.800781 82.5 87.921875 C 81.25 88.046875 79.992188 88.109375 78.730469 88.109375 C 77.472656 88.109375 76.214844 88.046875 74.964844 87.921875 C 73.710938 87.800781 72.464844 87.613281 71.230469 87.371094 C 69.996094 87.125 68.773438 86.816406 67.570312 86.453125 C 66.363281 86.085938 65.179688 85.664062 64.015625 85.179688 C 62.851562 84.699219 61.714844 84.160156 60.605469 83.566406 C 59.496094 82.972656 58.414062 82.328125 57.367188 81.628906 C 56.320312 80.929688 55.3125 80.179688 54.335938 79.378906 C 53.363281 78.582031 52.433594 77.734375 51.542969 76.84375 C 50.652344 75.953125 49.804688 75.023438 49.007812 74.050781 C 48.207031 73.074219 47.457031 72.066406 46.757812 71.019531 C 46.058594 69.972656 45.414062 68.890625 44.820312 67.78125 C 44.226562 66.671875 43.6875 65.535156 43.207031 64.371094 C 42.722656 63.207031 42.300781 62.023438 41.933594 60.816406 C 41.570312 59.613281 41.261719 58.390625 41.015625 57.15625 C 40.769531 55.921875 40.585938 54.675781 40.464844 53.421875 C 40.339844 52.171875 40.277344 50.914062 40.277344 49.65625 C 40.277344 48.394531 40.339844 47.136719 40.464844 45.886719 C 40.585938 44.632812 40.769531 43.386719 41.015625 42.152344 C 41.261719 40.917969 41.570312 39.695312 41.933594 38.492188 C 42.300781 37.285156 42.722656 36.101562 43.207031 34.9375 C 43.6875 33.773438 44.226562 32.636719 44.820312 31.527344 C 45.414062 30.417969 46.058594 29.335938 46.757812 28.289062 C 47.457031 27.242188 48.207031 26.234375 49.007812 25.257812 C 49.804688 24.285156 50.652344 23.355469 51.542969 22.464844 C 52.433594 21.574219 53.363281 20.726562 54.335938 19.929688 C 55.3125 19.128906 56.320312 18.378906 57.367188 17.679688 C 58.414062 16.980469 59.496094 16.335938 60.605469 15.742188 C 61.714844 15.148438 62.851562 14.609375 64.015625 14.128906 C 65.179688 13.644531 66.363281 13.222656 67.570312 12.855469 C 68.773438 12.492188 69.996094 12.183594 71.230469 11.9375 C 72.464844 11.695312 73.710938 11.507812 74.964844 11.386719 C 76.214844 11.261719 77.472656 11.199219 78.730469 11.199219 C 79.992188 11.199219 81.25 11.261719 82.5 11.386719 C 83.753906 11.507812 85 11.695312 86.234375 11.9375 C 87.46875 12.183594 88.691406 12.492188 89.894531 12.855469 C 91.101562 13.222656 92.285156 13.644531 93.449219 14.128906 C 94.613281 14.609375 95.75 15.148438 96.859375 15.742188 C 97.96875 16.335938 99.050781 16.980469 100.097656 17.679688 C 101.144531 18.378906 102.152344 19.128906 103.128906 19.929688 C 104.101562 20.726562 105.03125 21.574219 105.921875 22.464844 C 106.8125 23.355469 107.660156 24.285156 108.457031 25.257812 C 109.257812 26.234375 110.007812 27.242188 110.707031 28.289062 C 111.40625 29.335938 112.050781 30.417969 112.644531 31.527344 C 113.238281 32.636719 113.777344 33.773438 114.257812 34.9375 C 114.742188 36.101562 115.164062 37.285156 115.53125 38.492188 C 115.894531 39.695312 116.203125 40.917969 116.449219 42.152344 C 116.691406 43.386719 116.878906 44.632812 117 45.886719 C 117.125 47.136719 117.1875 48.394531 117.1875 49.65625 Z M 117.1875 49.65625 " fill-opacity="1" fill-rule="nonzero"/></g><g clip-path="url(#f667d51199)"><path fill="#577399" d="M 22.65625 48.558594 C 22.445312 48.601562 22.238281 48.652344 22.039062 48.714844 C 19.304688 49.5625 17.363281 52.230469 15.828125 54.503906 C 14.824219 55.988281 13.824219 57.503906 13.179688 59.179688 C 12.5 60.9375 12.226562 62.800781 12.164062 64.671875 C 12.03125 68.382812 12.449219 72.003906 13.25 75.613281 C 13.621094 77.28125 14.015625 78.957031 14.242188 80.636719 C 14.492188 82.464844 14.554688 84.300781 14.183594 86.15625 C 13.996094 87.09375 13.664062 87.933594 13.25 88.734375 C 13.207031 88.734375 13.167969 88.742188 13.128906 88.765625 C 12.890625 88.917969 12.589844 89.148438 12.421875 89.417969 C 12.375 89.476562 12.328125 89.535156 12.289062 89.605469 C 12.195312 89.761719 12.234375 89.9375 12.355469 90.035156 C 12.363281 90.050781 12.375 90.066406 12.378906 90.082031 C 12.390625 90.085938 12.402344 90.085938 12.414062 90.09375 C 12.625 90.230469 13.214844 90.175781 13.347656 89.914062 C 13.355469 89.902344 13.359375 89.902344 13.363281 89.894531 C 13.410156 89.773438 13.433594 89.644531 13.425781 89.519531 C 13.503906 89.335938 13.542969 89.140625 13.523438 88.957031 C 13.523438 88.953125 13.519531 88.949219 13.519531 88.941406 C 14.230469 87.570312 14.683594 86.070312 14.808594 84.527344 C 14.917969 83.222656 14.832031 81.925781 14.640625 80.636719 C 14.34375 78.621094 13.800781 76.632812 13.367188 74.660156 C 12.574219 71.066406 12.207031 67.289062 12.492188 63.609375 C 12.628906 61.820312 13.035156 60.070312 13.785156 58.433594 C 14.449219 56.992188 15.371094 55.660156 16.246094 54.339844 C 17.742188 52.089844 19.789062 49.414062 22.59375 48.847656 C 22.816406 48.800781 23.046875 48.765625 23.285156 48.75 C 23.3125 48.746094 23.335938 48.738281 23.351562 48.726562 C 23.121094 48.667969 22.886719 48.609375 22.65625 48.558594 " fill-opacity="1" fill-rule="nonzero"/></g><g clip-path="url(#879617a838)"><path fill="#577399" d="M 106.714844 88.179688 C 107.585938 87.117188 108.890625 85.257812 109.703125 82.636719 C 110.59375 79.75 110.484375 77.269531 110.316406 75.859375 C 101.898438 77.550781 91.351562 78.953125 79.183594 78.9375 C 67.148438 78.925781 56.707031 77.535156 48.355469 75.859375 C 48.214844 77.457031 48.195312 80.164062 49.277344 83.25 C 50.046875 85.441406 51.113281 87.085938 51.957031 88.179688 L 76.921875 88.179688 C 76.933594 88.214844 76.921875 88.246094 76.867188 88.285156 C 76.851562 88.296875 76.84375 88.308594 76.828125 88.316406 C 76.800781 88.3125 76.777344 88.304688 76.75 88.300781 C 76.542969 88.308594 76.296875 88.238281 76.082031 88.230469 C 75.445312 88.210938 74.835938 88.359375 74.21875 88.5 C 72.199219 88.964844 70.34375 88.929688 68.28125 88.871094 C 66.53125 88.820312 64.746094 88.957031 63.003906 89.109375 C 61.789062 89.210938 60.796875 89.746094 59.636719 89.984375 C 59.589844 89.992188 59.5625 90.015625 59.542969 90.046875 C 59.363281 90.007812 59.179688 89.988281 59 89.964844 C 57.835938 89.820312 56.636719 89.898438 55.464844 89.890625 C 54 89.882812 52.523438 89.804688 51.070312 89.976562 C 50.8125 90.007812 50.835938 90.386719 51.082031 90.414062 C 52.1875 90.554688 53.3125 90.585938 54.425781 90.609375 C 55.808594 90.640625 57.542969 90.410156 58.871094 90.6875 C 59.277344 90.773438 59.609375 90.9375 59.941406 91.109375 C 60.074219 91.175781 60.144531 91.355469 60.316406 91.402344 C 61.265625 91.660156 62.582031 91.230469 63.5625 91.175781 C 68.941406 90.875 74.34375 91.371094 79.71875 90.949219 C 80.871094 90.859375 82.308594 90.546875 83.472656 90.75 C 83.476562 90.769531 83.480469 90.792969 83.480469 90.816406 C 83.476562 90.871094 83.453125 90.917969 83.429688 90.964844 C 82.898438 91.144531 82.289062 91.195312 81.734375 91.246094 C 79.304688 91.472656 76.839844 91.257812 74.398438 91.382812 C 71.503906 91.53125 68.644531 91.832031 65.742188 91.804688 C 63.003906 91.78125 60.277344 91.597656 57.542969 91.597656 C 57.214844 91.597656 57.207031 92.109375 57.539062 92.109375 C 60.097656 92.109375 62.609375 92.285156 65.15625 92.523438 C 67.53125 92.742188 69.832031 92.578125 72.199219 92.382812 C 73.042969 92.3125 73.890625 92.265625 74.734375 92.230469 C 75.359375 92.34375 76.25 92.476562 76.476562 92.609375 C 76.464844 92.605469 76.457031 92.601562 76.441406 92.597656 C 76.277344 92.589844 76.113281 92.585938 75.949219 92.578125 C 75.464844 92.554688 74.980469 92.472656 74.496094 92.472656 C 73.414062 92.472656 72.34375 92.710938 71.28125 92.886719 C 69.066406 93.253906 66.972656 92.9375 64.753906 92.992188 C 62.171875 93.058594 59.628906 93.410156 57.042969 93.476562 C 56.132812 93.5 55.214844 93.507812 54.304688 93.425781 C 53.183594 93.320312 51.957031 93.429688 50.863281 93.171875 C 50.570312 93.105469 50.445312 93.617188 50.738281 93.699219 C 51.792969 93.992188 52.925781 93.847656 54.007812 93.949219 C 55.390625 94.074219 56.761719 94.066406 58.148438 94.015625 C 61.386719 93.898438 64.570312 93.558594 67.816406 93.804688 C 68.539062 93.859375 69.253906 93.816406 69.964844 93.730469 C 69.960938 93.792969 70 93.859375 70.066406 93.859375 C 70.667969 93.851562 72.355469 93.425781 72.707031 94.253906 C 71.730469 94.320312 70.75 94.339844 69.769531 94.378906 C 68.242188 94.4375 66.589844 94.453125 65.140625 94.988281 C 64.894531 95.082031 64.957031 95.519531 65.230469 95.511719 C 65.882812 95.484375 66.53125 95.484375 67.179688 95.492188 C 67.238281 95.523438 67.308594 95.539062 67.390625 95.539062 C 67.726562 95.535156 68.070312 95.527344 68.417969 95.519531 C 70.335938 95.574219 72.238281 95.652344 74.183594 95.410156 C 77.503906 94.996094 80.8125 94.988281 84.128906 95.484375 C 86.902344 95.898438 89.5 95.738281 92.292969 95.660156 C 94.507812 95.597656 96.609375 95.019531 98.808594 94.90625 C 99.066406 94.894531 99.085938 94.5 98.824219 94.5 C 98.050781 94.511719 97.292969 94.625 96.539062 94.757812 C 95.738281 94.566406 94.992188 94.609375 94.15625 94.628906 C 92.734375 94.664062 91.359375 94.386719 89.949219 94.242188 C 88.757812 94.117188 87.503906 94.085938 86.308594 94.167969 C 85.253906 94.242188 84.238281 94.5625 83.1875 94.550781 C 83.128906 94.539062 83.074219 94.523438 83.015625 94.511719 C 82.859375 94.484375 82.585938 94.496094 82.457031 94.40625 C 82.351562 94.332031 82.320312 94.257812 82.332031 94.183594 C 82.757812 94.03125 83.3125 93.921875 83.789062 93.847656 C 84.359375 93.933594 84.925781 93.933594 85.535156 93.878906 C 87.070312 93.742188 88.523438 93.761719 90.058594 93.734375 C 90.148438 93.734375 90.234375 93.730469 90.324219 93.726562 C 90.4375 93.742188 90.554688 93.753906 90.667969 93.769531 C 91.441406 93.886719 92.183594 93.757812 92.957031 93.761719 C 94.007812 93.765625 95.035156 94.023438 96.089844 93.992188 C 96.835938 93.972656 97.476562 93.757812 98.199219 93.613281 C 99.398438 93.375 100.644531 93.410156 101.839844 93.667969 C 101.957031 93.695312 102.023438 93.519531 101.898438 93.484375 C 100.59375 93.113281 99.363281 93.15625 98.125 93.253906 C 98.113281 93.113281 98.027344 92.988281 97.847656 92.980469 C 96.429688 92.929688 95.011719 92.800781 93.605469 92.75 C 92.410156 92.707031 91.25 92.988281 90.050781 93.039062 C 89.566406 93.058594 89.085938 93.039062 88.605469 93.027344 C 88.171875 93.003906 87.730469 92.996094 87.261719 93.011719 C 87.066406 93.019531 86.011719 93.0625 84.839844 93.203125 C 84.5 93.035156 84.089844 92.800781 84.117188 92.742188 C 84.152344 92.667969 84.574219 92.683594 84.644531 92.660156 C 85.296875 92.40625 86.3125 92.589844 87.015625 92.597656 C 88.46875 92.617188 89.871094 92.34375 91.316406 92.304688 C 92.726562 92.261719 94.125 92.484375 95.542969 92.40625 C 97.027344 92.324219 98.453125 91.871094 99.9375 91.800781 C 100.128906 91.792969 100.144531 91.5 99.953125 91.503906 C 98.550781 91.550781 97.175781 91.832031 95.777344 91.871094 C 94.765625 91.898438 93.769531 91.847656 92.765625 91.789062 C 92.488281 91.640625 92.210938 91.648438 91.898438 91.609375 C 91.457031 91.554688 91.015625 91.488281 90.578125 91.402344 C 90.21875 91.332031 89.820312 91.257812 90.15625 90.863281 C 90.257812 90.75 90.375 90.683594 90.472656 90.578125 C 90.851562 90.464844 91.300781 90.4375 91.691406 90.382812 C 92.527344 90.269531 93.371094 90.207031 94.214844 90.175781 C 96.117188 90.109375 98.015625 90.25 99.921875 90.28125 C 101.289062 90.304688 102.601562 89.960938 103.960938 89.90625 C 105.773438 89.832031 107.628906 89.984375 109.445312 89.964844 C 109.75 89.964844 109.726562 89.496094 109.421875 89.496094 C 108.0625 89.492188 106.707031 89.480469 105.351562 89.398438 C 104.507812 89.347656 103.726562 89.398438 102.933594 89.476562 C 102.90625 89.429688 102.859375 89.390625 102.792969 89.375 C 101.921875 89.164062 101.019531 89.28125 100.125 89.230469 C 98.8125 89.160156 97.511719 89.066406 96.191406 89.066406 C 94.695312 89.0625 93.109375 89.097656 91.574219 89.292969 C 90.976562 89.234375 90.375 89.175781 89.777344 89.097656 C 88.914062 88.984375 88.078125 89.085938 87.214844 89.152344 C 86.894531 89.175781 86.566406 89.210938 86.246094 89.214844 L 85.867188 89.222656 C 85.082031 89.3125 84.867188 88.964844 85.222656 88.179688 L 106.714844 88.179688 " fill-opacity="1" fill-rule="nonzero"/></g><path fill="#577399" d="M 65.292969 70.679688 C 64.734375 70.609375 64.191406 70.617188 63.675781 70.328125 C 63.410156 70.179688 63.175781 69.980469 62.925781 69.816406 C 62.769531 69.710938 62.617188 69.605469 62.460938 69.519531 C 62.578125 69.40625 62.589844 69.140625 62.316406 69.140625 C 62.191406 69.140625 62.015625 69.152344 61.839844 69.1875 C 61.800781 69.179688 61.765625 69.171875 61.738281 69.167969 C 61.691406 69.160156 61.644531 69.164062 61.597656 69.164062 C 61.722656 69.023438 61.625 68.757812 61.402344 68.824219 C 61.3125 68.851562 61.25 68.886719 61.1875 68.960938 C 61.175781 68.972656 61.167969 68.984375 61.164062 69 C 61.132812 69 61.101562 69.011719 61.085938 69.03125 C 61.003906 69.144531 60.949219 69.25 60.996094 69.367188 C 60.964844 69.453125 60.945312 69.542969 60.953125 69.652344 C 60.957031 69.734375 61.011719 69.835938 61.105469 69.851562 C 61.300781 69.886719 61.585938 69.921875 61.804688 69.851562 C 61.910156 69.851562 61.996094 69.851562 62.070312 69.847656 C 62.503906 70.226562 63.046875 70.550781 63.507812 70.824219 C 64.089844 71.164062 64.648438 71.226562 65.304688 71.117188 C 65.558594 71.078125 65.542969 70.710938 65.292969 70.679688 " fill-opacity="1" fill-rule="nonzero"/><path fill="#577399" d="M 55.734375 64.660156 C 55.746094 64.644531 55.742188 64.644531 55.734375 64.660156 " fill-opacity="1" fill-rule="nonzero"/><g clip-path="url(#f0c947dc47)"><path fill="#577399" d="M 56.269531 64.496094 C 56.074219 64.417969 55.832031 64.480469 55.726562 64.675781 C 55.710938 64.703125 55.6875 64.746094 55.679688 64.757812 C 55.648438 64.820312 55.621094 64.878906 55.589844 64.941406 C 55.5625 65.007812 55.53125 65.074219 55.503906 65.140625 C 55.386719 65.101562 55.265625 65.078125 55.136719 65.078125 C 54.550781 65.078125 54.0625 65.484375 53.9375 66.03125 C 53.144531 65.109375 53.074219 63.691406 52.300781 62.6875 C 52.167969 62.519531 52.019531 62.371094 51.867188 62.230469 C 51.980469 62.0625 52.117188 61.910156 52.128906 61.679688 C 52.132812 61.566406 52.042969 61.441406 51.917969 61.441406 C 51.640625 61.445312 51.433594 61.609375 51.261719 61.800781 C 50.757812 61.507812 50.191406 61.324219 49.609375 61.222656 C 47.542969 60.855469 45.8125 60.742188 43.921875 59.695312 C 42.199219 58.738281 40.949219 57.460938 39.582031 56.078125 C 38.910156 55.394531 38.171875 54.691406 37.308594 54.234375 C 37.359375 54.066406 37.414062 53.902344 37.296875 53.746094 C 37.246094 53.675781 37.191406 53.65625 37.109375 53.648438 C 36.859375 53.621094 36.75 53.785156 36.679688 53.953125 C 34.90625 53.328125 32.921875 53.71875 31.085938 53.558594 C 28.925781 53.371094 27.117188 52.425781 25.613281 50.898438 C 24.816406 50.085938 24.054688 49.238281 22.945312 48.96875 C 22.964844 48.960938 22.984375 48.960938 23 48.953125 C 23.050781 48.929688 23.054688 48.867188 23.007812 48.839844 C 22.941406 48.808594 22.867188 48.804688 22.789062 48.808594 C 22.773438 48.726562 22.726562 48.652344 22.628906 48.613281 C 22.480469 48.554688 22.28125 48.636719 22.25 48.808594 C 22.25 48.8125 22.246094 48.816406 22.246094 48.820312 C 22.199219 48.824219 22.152344 48.832031 22.109375 48.855469 C 22.082031 48.871094 22.074219 48.914062 22.101562 48.929688 C 22.136719 48.953125 22.179688 48.964844 22.21875 48.980469 C 22.21875 49.023438 22.226562 49.066406 22.25 49.109375 C 22.289062 49.175781 22.351562 49.222656 22.421875 49.242188 C 22.566406 49.285156 22.675781 49.210938 22.738281 49.097656 C 24.328125 49.453125 25.222656 51.089844 26.441406 52.0625 C 27.589844 52.980469 29.039062 53.578125 30.492188 53.777344 C 32.441406 54.039062 34.542969 53.496094 36.429688 54.136719 C 36.492188 54.15625 36.550781 54.179688 36.613281 54.207031 C 36.617188 54.34375 36.699219 54.472656 36.835938 54.523438 C 36.9375 54.5625 37.082031 54.542969 37.179688 54.472656 C 38.527344 55.222656 39.5 56.574219 40.578125 57.65625 C 42.6875 59.769531 45.347656 61.09375 48.300781 61.433594 C 49.207031 61.539062 50.226562 61.636719 51.039062 62.101562 C 50.984375 62.273438 51.046875 62.464844 51.203125 62.566406 C 51.34375 62.648438 51.507812 62.636719 51.628906 62.554688 C 51.667969 62.59375 51.703125 62.628906 51.738281 62.667969 C 52.261719 63.261719 52.453125 64.03125 52.746094 64.742188 C 53.039062 65.457031 53.375 66.085938 53.925781 66.546875 C 54.035156 67.113281 54.535156 67.542969 55.136719 67.542969 C 55.816406 67.542969 56.367188 66.992188 56.367188 66.308594 C 56.367188 66.070312 56.296875 65.851562 56.179688 65.664062 C 56.335938 65.449219 56.449219 65.191406 56.527344 65.007812 C 56.605469 64.8125 56.449219 64.566406 56.269531 64.496094 " fill-opacity="1" fill-rule="nonzero"/></g><path fill="#577399" d="M 55.726562 64.675781 C 55.730469 64.667969 55.734375 64.664062 55.734375 64.660156 C 55.734375 64.664062 55.730469 64.667969 55.726562 64.675781 " fill-opacity="1" fill-rule="nonzero"/><g clip-path="url(#5a7e3570f2)"><path fill="#577399" d="M 61.339844 69.742188 C 61.292969 69.75 61.105469 69.824219 61.078125 69.800781 C 61.011719 69.75 61.101562 69.527344 61.117188 69.46875 C 61.15625 69.296875 61.207031 69.132812 61.210938 68.953125 L 62.15625 69.695312 C 61.882812 69.6875 61.609375 69.691406 61.339844 69.742188 Z M 82.402344 72.90625 C 82.402344 72.8125 82.351562 71.640625 82.085938 70.089844 C 81.917969 69.101562 81.652344 68.128906 81.1875 67.359375 C 80.816406 66.183594 79.839844 65.285156 78.617188 65.039062 C 78.496094 64.792969 78.355469 64.550781 78.191406 64.300781 C 78.003906 64.023438 77.785156 63.78125 77.550781 63.5625 C 78.320312 63.011719 78.902344 62.214844 79.171875 61.289062 C 79.894531 61.328125 80.617188 61.308594 81.34375 61.132812 C 81.816406 61.023438 81.667969 60.410156 81.300781 60.285156 C 80.882812 60.140625 80.441406 60.011719 79.992188 59.894531 C 79.765625 59.613281 79.589844 59.296875 79.363281 59.011719 C 79.34375 58.980469 79.320312 58.957031 79.300781 58.925781 C 79.011719 56.851562 77.238281 55.257812 75.089844 55.257812 C 72.949219 55.257812 71.179688 56.839844 70.886719 58.902344 C 70.425781 59.324219 69.921875 59.714844 69.210938 59.769531 C 68.605469 59.816406 68.191406 60.636719 68.734375 61.066406 C 69.542969 61.722656 70.335938 61.839844 71.167969 61.742188 C 71.167969 61.746094 71.167969 61.75 71.171875 61.75 C 71.171875 61.75 71.175781 61.75 71.179688 61.75 C 71.277344 61.691406 71.371094 61.664062 71.511719 61.691406 C 71.597656 61.707031 71.628906 61.804688 71.617188 61.878906 C 71.589844 62.054688 71.585938 62.230469 71.582031 62.410156 C 71.597656 62.507812 71.648438 62.578125 71.777344 62.605469 C 71.84375 62.621094 71.902344 62.617188 71.96875 62.640625 C 72.050781 62.632812 72.132812 62.644531 72.214844 62.699219 C 72.246094 62.722656 72.289062 62.769531 72.339844 63.019531 C 72.375 63.1875 72.371094 63.214844 72.398438 63.230469 C 72.464844 63.261719 72.554688 63.15625 72.777344 63.035156 C 72.875 62.976562 72.960938 62.941406 73.015625 62.921875 C 72.972656 63.167969 72.914062 63.285156 72.863281 63.34375 C 72.859375 63.347656 72.855469 63.355469 72.847656 63.367188 C 72.769531 63.449219 72.78125 63.5625 72.8125 63.671875 C 73.332031 64.003906 73.921875 64.234375 74.566406 64.316406 C 74.667969 64.558594 74.773438 64.789062 74.882812 65.015625 C 73.273438 65.296875 72.054688 66.699219 72.054688 68.386719 L 72.054688 68.972656 C 71.976562 69.039062 71.90625 69.113281 71.816406 69.191406 C 71.46875 69.496094 71.054688 69.730469 70.65625 69.953125 C 70.113281 70.257812 69.542969 70.449219 68.980469 70.671875 L 68.601562 70.691406 C 68.484375 70.695312 68.359375 70.683594 68.242188 70.652344 C 68.179688 70.636719 68.121094 70.617188 68.0625 70.589844 L 67.976562 70.550781 C 67.957031 70.542969 67.871094 70.488281 67.824219 70.460938 L 64.269531 68.289062 C 64.261719 68.28125 64.257812 68.273438 64.25 68.261719 C 63.894531 67.949219 63.523438 67.605469 63.359375 67.148438 C 63.265625 66.902344 63.28125 66.515625 63.0625 66.332031 C 62.953125 66.242188 62.851562 66.230469 62.769531 66.269531 C 62.667969 66.261719 62.566406 66.308594 62.539062 66.421875 C 62.507812 66.570312 62.363281 66.820312 62.253906 67.070312 C 62.105469 66.996094 61.941406 66.96875 61.785156 66.96875 C 61.527344 66.640625 60.945312 66.574219 60.582031 66.507812 C 60.527344 66.5 60.480469 66.519531 60.441406 66.550781 C 59.964844 66.214844 59.4375 65.84375 58.84375 65.4375 C 58.65625 65.308594 58.425781 65.308594 58.238281 65.398438 C 52.570312 61.589844 46.675781 58.117188 40.523438 55.144531 C 37.371094 53.625 34.152344 52.238281 30.859375 51.042969 C 28.398438 50.148438 25.894531 49.359375 23.351562 48.726562 C 23.121094 48.667969 22.886719 48.609375 22.65625 48.558594 C 22.03125 48.410156 21.402344 48.269531 20.769531 48.140625 C 20.695312 48.121094 20.621094 48.175781 20.601562 48.25 C 20.589844 48.324219 20.636719 48.402344 20.714844 48.414062 C 21.15625 48.507812 21.597656 48.609375 22.039062 48.714844 C 22.222656 48.757812 22.40625 48.800781 22.59375 48.847656 C 25.355469 49.527344 28.066406 50.394531 30.734375 51.382812 C 34.003906 52.601562 37.199219 54.003906 40.328125 55.542969 C 46.433594 58.550781 52.285156 62.0625 57.902344 65.898438 C 57.890625 66.105469 57.972656 66.3125 58.152344 66.4375 C 58.871094 66.929688 59.5 67.371094 60.042969 67.753906 C 60.023438 67.804688 60.015625 67.855469 60.03125 67.914062 C 60.066406 68.03125 60.167969 68.117188 60.269531 68.179688 C 60.394531 68.246094 60.574219 68.292969 60.742188 68.285156 C 60.796875 68.503906 60.914062 68.707031 61.101562 68.859375 C 61.085938 68.867188 61.070312 68.875 61.058594 68.886719 C 60.851562 69.140625 60.410156 69.914062 60.851562 70.152344 C 61.03125 70.253906 61.28125 70.140625 61.46875 70.113281 C 61.894531 70.050781 62.320312 70.117188 62.746094 70.160156 L 66.160156 72.851562 L 66.335938 72.984375 C 66.417969 73.046875 66.503906 73.105469 66.589844 73.15625 C 66.761719 73.265625 66.945312 73.359375 67.132812 73.445312 C 67.507812 73.609375 67.910156 73.71875 68.324219 73.773438 C 68.804688 73.824219 68.972656 73.816406 69.261719 73.835938 L 69.726562 73.863281 C 69.957031 73.808594 70.183594 73.734375 70.398438 73.613281 C 70.886719 73.34375 71.308594 72.988281 71.832031 72.777344 C 71.902344 72.746094 72.007812 72.808594 72.019531 72.882812 C 72.09375 73.308594 72.101562 73.734375 72.046875 74.160156 L 72.046875 76.292969 C 71.210938 75.757812 70.324219 75.277344 69.570312 74.605469 C 69.289062 74.347656 68.789062 74.269531 68.476562 74.515625 C 67.324219 75.402344 66.570312 76.542969 65.707031 77.6875 C 64.957031 78.6875 64.144531 79.613281 63.441406 80.636719 C 71.101562 79.265625 79.203125 81.445312 82.265625 79.554688 C 83.664062 78.691406 82.382812 73.601562 82.402344 72.90625 " fill-opacity="1" fill-rule="nonzero"/></g><path fill="#577399" d="M 49.609375 58.75 C 51.378906 59.238281 53.125 59.808594 54.847656 60.445312 C 57.472656 61.421875 60.039062 62.550781 62.554688 63.785156 C 62.898438 63.957031 63.242188 64.132812 63.582031 64.308594 C 62.980469 64.054688 62.324219 63.894531 61.59375 63.863281 C 60.644531 63.820312 59.699219 63.964844 58.75 63.789062 C 57.761719 63.605469 56.808594 63.203125 55.898438 62.796875 C 54.496094 62.175781 53.113281 61.414062 51.929688 60.433594 C 51.179688 59.820312 50.445312 59.15625 49.609375 58.75 Z M 64.386719 64.714844 C 67.730469 66.445312 70.972656 68.367188 74.128906 70.417969 C 74.023438 70.53125 73.9375 70.683594 73.871094 70.792969 C 73.773438 70.957031 73.683594 71.128906 73.597656 71.296875 C 73.578125 71.296875 73.5625 71.292969 73.546875 71.292969 C 73.023438 71.292969 72.582031 71.617188 72.402344 72.078125 C 69.101562 70.59375 67.382812 66.503906 64.386719 64.714844 Z M 39.738281 92.667969 C 40.171875 92.003906 40.632812 91.359375 41 90.648438 C 41.582031 89.539062 41.953125 88.320312 42.054688 87.070312 C 42.140625 86.019531 42.074219 84.976562 41.921875 83.945312 C 41.683594 82.324219 41.246094 80.726562 40.898438 79.140625 C 40.261719 76.257812 39.964844 73.222656 40.195312 70.265625 C 40.304688 68.832031 40.628906 67.421875 41.230469 66.109375 C 41.765625 64.949219 42.503906 63.882812 43.210938 62.820312 C 44.277344 61.214844 45.695312 59.339844 47.578125 58.625 C 47.59375 58.628906 47.609375 58.632812 47.625 58.632812 C 47.816406 58.632812 48 58.648438 48.183594 58.671875 C 48.113281 58.859375 48.238281 59.101562 48.4375 59.148438 C 48.671875 59.203125 48.847656 59.035156 48.871094 58.828125 C 50.914062 59.457031 52.558594 61.5 54.40625 62.527344 C 56.445312 63.660156 58.492188 64.253906 60.8125 64.269531 C 61.859375 64.273438 62.726562 64.371094 63.542969 64.675781 C 63.460938 64.828125 63.488281 65.023438 63.664062 65.121094 C 63.859375 65.234375 64.0625 65.121094 64.132812 64.9375 C 64.503906 65.132812 64.871094 65.375 65.25 65.683594 C 66.214844 66.476562 66.972656 67.46875 67.773438 68.414062 C 68.980469 69.847656 70.574219 71.480469 72.339844 72.269531 C 72.324219 72.351562 72.3125 72.4375 72.3125 72.523438 C 72.3125 73.203125 72.867188 73.757812 73.546875 73.757812 C 74.226562 73.757812 74.78125 73.203125 74.78125 72.523438 C 74.78125 72.105469 74.570312 71.738281 74.25 71.515625 C 74.316406 71.378906 74.378906 71.242188 74.449219 71.113281 C 74.515625 70.992188 74.59375 70.875 74.644531 70.75 C 75.324219 71.195312 76 71.648438 76.671875 72.105469 C 76.660156 72.273438 76.726562 72.4375 76.871094 72.535156 C 77.445312 72.933594 77.953125 73.289062 78.390625 73.597656 C 78.375 73.636719 78.367188 73.675781 78.378906 73.722656 C 78.40625 73.816406 78.492188 73.886719 78.574219 73.933594 C 78.671875 73.992188 78.816406 74.027344 78.949219 74.019531 C 78.992188 74.199219 79.089844 74.363281 79.238281 74.484375 C 79.226562 74.488281 79.214844 74.492188 79.207031 74.503906 C 79.035156 74.707031 78.683594 75.328125 79.039062 75.523438 C 79.183594 75.601562 79.382812 75.511719 79.535156 75.492188 C 79.722656 75.460938 79.910156 75.46875 80.097656 75.480469 C 80.167969 75.5 80.242188 75.515625 80.316406 75.535156 C 80.449219 75.570312 80.574219 75.605469 80.699219 75.640625 L 83.300781 77.6875 L 83.441406 77.796875 C 83.507812 77.847656 83.578125 77.890625 83.644531 77.9375 C 83.785156 78.023438 83.929688 78.097656 84.082031 78.167969 C 84.386719 78.296875 84.707031 78.386719 85.039062 78.429688 C 85.425781 78.46875 85.5625 78.464844 85.792969 78.480469 L 86.167969 78.503906 C 86.351562 78.457031 86.535156 78.398438 86.707031 78.300781 C 87.097656 78.085938 87.4375 77.796875 87.855469 77.628906 C 87.914062 77.605469 88 77.652344 88.007812 77.714844 C 88.066406 78.058594 88.074219 78.398438 88.03125 78.738281 L 88.03125 80.453125 C 87.359375 80.023438 86.648438 79.640625 86.042969 79.097656 C 85.816406 78.890625 85.414062 78.828125 85.164062 79.023438 C 84.238281 79.738281 83.632812 80.652344 82.941406 81.574219 C 82.335938 82.378906 81.683594 83.121094 81.117188 83.945312 C 87.273438 82.84375 93.78125 84.59375 96.238281 83.074219 C 97.363281 82.378906 96.332031 78.292969 96.347656 77.734375 C 96.347656 77.660156 96.308594 76.714844 96.09375 75.46875 C 95.957031 74.675781 95.746094 73.894531 95.371094 73.277344 C 95.074219 72.332031 94.289062 71.613281 93.308594 71.414062 C 93.210938 71.214844 93.097656 71.023438 92.964844 70.820312 C 92.816406 70.597656 92.640625 70.402344 92.449219 70.226562 C 93.070312 69.785156 93.539062 69.144531 93.753906 68.402344 C 93.894531 67.902344 94.203125 67.289062 93.90625 66.574219 C 93.890625 66.546875 93.875 66.527344 93.855469 66.503906 C 93.625 64.835938 92.199219 63.554688 90.476562 63.554688 C 88.753906 63.554688 87.335938 64.828125 87.097656 66.484375 C 86.730469 66.824219 86.324219 67.136719 85.753906 67.179688 C 85.265625 67.21875 84.933594 67.878906 85.371094 68.226562 C 86.019531 68.75 86.65625 68.84375 87.324219 68.765625 C 87.324219 68.769531 87.324219 68.769531 87.328125 68.773438 C 87.328125 68.773438 87.332031 68.773438 87.335938 68.773438 C 87.414062 68.726562 87.488281 68.703125 87.597656 68.726562 C 87.671875 68.738281 87.695312 68.816406 87.6875 68.875 C 87.664062 69.019531 87.660156 69.160156 87.660156 69.300781 C 87.671875 69.382812 87.710938 69.4375 87.816406 69.460938 C 87.867188 69.472656 87.917969 69.46875 87.96875 69.488281 C 88.03125 69.480469 88.097656 69.492188 88.164062 69.535156 C 88.191406 69.554688 88.226562 69.59375 88.269531 69.792969 C 88.296875 69.929688 88.292969 69.949219 88.3125 69.960938 C 88.367188 69.988281 88.441406 69.902344 88.617188 69.804688 C 88.695312 69.757812 88.765625 69.730469 88.808594 69.714844 C 88.773438 69.910156 88.726562 70.003906 88.6875 70.054688 C 88.683594 70.058594 88.679688 70.0625 88.671875 70.070312 C 88.613281 70.136719 88.621094 70.226562 88.644531 70.316406 C 89.0625 70.582031 89.539062 70.769531 90.054688 70.832031 C 90.132812 71.027344 90.222656 71.210938 90.308594 71.398438 C 89.015625 71.621094 88.035156 72.746094 88.035156 74.101562 L 88.035156 74.574219 C 87.976562 74.628906 87.917969 74.6875 87.847656 74.75 C 87.566406 74.996094 87.234375 75.179688 86.910156 75.363281 C 86.476562 75.605469 86.019531 75.761719 85.566406 75.9375 L 85.265625 75.957031 C 85.167969 75.957031 85.070312 75.949219 84.972656 75.921875 C 84.925781 75.910156 84.878906 75.894531 84.828125 75.875 L 84.761719 75.839844 C 84.746094 75.835938 84.675781 75.792969 84.636719 75.769531 L 81.785156 74.027344 C 81.777344 74.019531 81.773438 74.011719 81.765625 74.003906 C 81.632812 73.882812 81.496094 73.757812 81.375 73.621094 C 81.261719 73.546875 81.15625 73.464844 81.054688 73.367188 C 81.007812 73.328125 80.964844 73.289062 80.921875 73.25 C 80.859375 73.234375 80.800781 73.214844 80.738281 73.191406 C 80.65625 73.160156 80.539062 73.074219 80.429688 73.011719 C 80.359375 72.984375 80.28125 72.96875 80.203125 72.964844 C 80.191406 72.992188 80.175781 73.019531 80.164062 73.046875 C 80.042969 72.988281 79.914062 72.964844 79.785156 72.964844 C 79.582031 72.703125 79.113281 72.648438 78.820312 72.597656 C 78.777344 72.585938 78.738281 72.605469 78.710938 72.628906 C 78.328125 72.359375 77.902344 72.058594 77.425781 71.734375 C 77.277344 71.628906 77.089844 71.628906 76.9375 71.703125 C 72.386719 68.644531 67.652344 65.855469 62.710938 63.46875 C 60.179688 62.246094 57.589844 61.128906 54.949219 60.171875 C 52.96875 59.453125 50.957031 58.820312 48.917969 58.3125 C 48.730469 58.265625 48.542969 58.21875 48.359375 58.175781 C 47.855469 58.058594 47.351562 57.945312 46.84375 57.839844 C 46.78125 57.828125 46.722656 57.867188 46.710938 57.929688 C 46.699219 57.988281 46.734375 58.050781 46.796875 58.0625 C 47.152344 58.136719 47.507812 58.214844 47.859375 58.300781 C 45.667969 58.980469 44.109375 61.125 42.875 62.953125 C 42.066406 64.144531 41.265625 65.359375 40.746094 66.707031 C 40.203125 68.121094 39.980469 69.617188 39.929688 71.121094 C 39.824219 74.097656 40.15625 77.007812 40.800781 79.910156 C 41.101562 81.246094 41.417969 82.59375 41.601562 83.945312 C 41.800781 85.410156 41.847656 86.886719 41.550781 88.375 C 41.234375 89.964844 40.410156 91.207031 39.53125 92.527344 C 39.527344 92.53125 39.523438 92.535156 39.523438 92.539062 C 39.441406 92.53125 39.355469 92.5625 39.304688 92.65625 C 39.226562 92.792969 39.085938 92.890625 38.988281 93.015625 C 38.925781 93.101562 38.875 93.195312 38.8125 93.28125 C 38.707031 93.429688 38.71875 93.625 38.828125 93.753906 C 38.828125 93.757812 38.824219 93.761719 38.824219 93.765625 C 38.875 93.785156 38.925781 93.804688 38.972656 93.828125 C 38.996094 93.839844 39.015625 93.855469 39.027344 93.871094 C 39.238281 93.917969 39.433594 93.773438 39.476562 93.558594 C 39.496094 93.472656 39.558594 93.402344 39.597656 93.328125 C 39.667969 93.1875 39.722656 93.035156 39.773438 92.886719 C 39.800781 92.804688 39.78125 92.726562 39.738281 92.667969 " fill-opacity="1" fill-rule="nonzero"/><g clip-path="url(#e52f260bca)"><path fill="#577399" d="M 115.839844 88.195312 C 116.714844 87.128906 118.015625 85.273438 118.828125 82.648438 C 119.71875 79.765625 119.609375 77.28125 119.445312 75.871094 C 111.027344 77.5625 100.480469 78.964844 88.316406 78.953125 C 76.28125 78.941406 65.84375 77.546875 57.496094 75.871094 C 57.355469 77.46875 57.335938 80.179688 58.417969 83.265625 C 59.1875 85.457031 60.253906 87.101562 61.097656 88.195312 L 86.058594 88.195312 C 86.070312 88.226562 86.054688 88.257812 86 88.300781 C 85.988281 88.3125 85.976562 88.324219 85.960938 88.332031 C 85.9375 88.328125 85.910156 88.320312 85.882812 88.316406 C 85.675781 88.324219 85.429688 88.253906 85.21875 88.246094 C 84.582031 88.226562 83.96875 88.375 83.351562 88.515625 C 81.332031 88.980469 79.476562 88.945312 77.417969 88.886719 C 75.667969 88.835938 73.882812 88.972656 72.140625 89.125 C 70.925781 89.226562 69.933594 89.761719 68.773438 90 C 68.730469 90.011719 68.699219 90.03125 68.683594 90.0625 C 68.5 90.023438 68.316406 90.003906 68.140625 89.980469 C 66.972656 89.835938 65.773438 89.914062 64.601562 89.90625 C 63.140625 89.898438 61.664062 89.820312 60.207031 89.992188 C 59.953125 90.023438 59.976562 90.402344 60.222656 90.429688 C 61.328125 90.570312 62.453125 90.601562 63.566406 90.625 C 64.945312 90.65625 66.683594 90.425781 68.007812 90.703125 C 68.414062 90.789062 68.75 90.953125 69.078125 91.125 C 69.210938 91.191406 69.285156 91.371094 69.453125 91.417969 C 70.402344 91.675781 71.71875 91.246094 72.699219 91.191406 C 78.078125 90.890625 83.476562 91.386719 88.851562 90.96875 C 90.003906 90.875 91.441406 90.5625 92.605469 90.765625 C 92.609375 90.785156 92.613281 90.808594 92.613281 90.832031 C 92.609375 90.886719 92.585938 90.933594 92.5625 90.980469 C 92.03125 91.160156 91.421875 91.210938 90.867188 91.261719 C 88.4375 91.488281 85.972656 91.273438 83.535156 91.398438 C 80.636719 91.546875 77.78125 91.847656 74.878906 91.820312 C 72.140625 91.796875 69.417969 91.613281 66.679688 91.613281 C 66.351562 91.613281 66.347656 92.125 66.675781 92.125 C 69.234375 92.125 71.746094 92.300781 74.292969 92.539062 C 76.667969 92.757812 78.964844 92.59375 81.332031 92.398438 C 82.179688 92.328125 83.023438 92.28125 83.871094 92.25 C 84.492188 92.359375 85.382812 92.492188 85.609375 92.625 C 85.597656 92.621094 85.589844 92.621094 85.578125 92.617188 C 85.414062 92.609375 85.246094 92.601562 85.082031 92.59375 C 84.597656 92.570312 84.113281 92.488281 83.628906 92.488281 C 82.546875 92.492188 81.480469 92.726562 80.414062 92.902344 C 78.203125 93.269531 76.105469 92.953125 73.886719 93.007812 C 71.308594 93.074219 68.765625 93.425781 66.183594 93.492188 C 65.269531 93.515625 64.351562 93.523438 63.445312 93.441406 C 62.324219 93.339844 61.09375 93.445312 60.003906 93.191406 C 59.710938 93.121094 59.585938 93.632812 59.878906 93.714844 C 60.933594 94.007812 62.066406 93.863281 63.148438 93.964844 C 64.53125 94.09375 65.902344 94.082031 67.285156 94.03125 C 70.523438 93.914062 73.707031 93.578125 76.949219 93.820312 C 77.675781 93.875 78.390625 93.832031 79.097656 93.746094 C 79.097656 93.808594 79.136719 93.875 79.199219 93.875 C 79.804688 93.867188 81.488281 93.445312 81.84375 94.269531 C 80.863281 94.335938 79.886719 94.355469 78.90625 94.394531 C 77.378906 94.457031 75.726562 94.472656 74.277344 95.007812 C 74.03125 95.097656 74.09375 95.539062 74.367188 95.527344 C 75.019531 95.5 75.667969 95.5 76.316406 95.511719 C 76.375 95.539062 76.445312 95.558594 76.523438 95.554688 C 76.863281 95.550781 77.207031 95.546875 77.554688 95.539062 C 79.46875 95.59375 81.375 95.667969 83.320312 95.425781 C 86.636719 95.011719 89.945312 95.003906 93.261719 95.5 C 96.03125 95.914062 98.632812 95.757812 101.421875 95.679688 C 103.640625 95.617188 105.738281 95.035156 107.9375 94.921875 C 108.195312 94.910156 108.214844 94.515625 107.953125 94.519531 C 107.179688 94.527344 106.421875 94.644531 105.667969 94.773438 C 104.867188 94.585938 104.121094 94.625 103.289062 94.648438 C 101.867188 94.679688 100.488281 94.402344 99.082031 94.257812 C 97.890625 94.132812 96.636719 94.101562 95.4375 94.183594 C 94.382812 94.257812 93.371094 94.578125 92.320312 94.566406 C 92.261719 94.554688 92.207031 94.542969 92.148438 94.53125 C 91.992188 94.5 91.71875 94.515625 91.589844 94.421875 C 91.484375 94.347656 91.453125 94.273438 91.460938 94.199219 C 91.890625 94.050781 92.445312 93.9375 92.917969 93.863281 C 93.492188 93.949219 94.058594 93.953125 94.667969 93.894531 C 96.199219 93.757812 97.652344 93.777344 99.191406 93.75 C 99.277344 93.75 99.367188 93.746094 99.453125 93.742188 C 99.570312 93.757812 99.683594 93.769531 99.800781 93.789062 C 100.570312 93.90625 101.3125 93.773438 102.085938 93.777344 C 103.136719 93.78125 104.164062 94.039062 105.21875 94.011719 C 105.964844 93.988281 106.605469 93.773438 107.324219 93.628906 C 108.527344 93.390625 109.769531 93.429688 110.96875 93.683594 C 111.085938 93.710938 111.148438 93.535156 111.027344 93.503906 C 109.722656 93.128906 108.492188 93.171875 107.253906 93.269531 C 107.242188 93.128906 107.15625 93.003906 106.976562 92.996094 C 105.558594 92.945312 104.140625 92.820312 102.734375 92.769531 C 101.539062 92.722656 100.378906 93.003906 99.179688 93.054688 C 98.695312 93.078125 98.214844 93.058594 97.734375 93.042969 C 97.304688 93.019531 96.859375 93.011719 96.390625 93.027344 C 96.195312 93.035156 95.144531 93.078125 93.972656 93.21875 C 93.632812 93.050781 93.222656 92.820312 93.25 92.757812 C 93.285156 92.683594 93.707031 92.703125 93.777344 92.675781 C 94.425781 92.421875 95.445312 92.605469 96.144531 92.613281 C 97.597656 92.632812 99.003906 92.363281 100.449219 92.320312 C 101.859375 92.28125 103.253906 92.5 104.671875 92.421875 C 106.15625 92.339844 107.582031 91.886719 109.066406 91.820312 C 109.253906 91.808594 109.273438 91.515625 109.082031 91.519531 C 107.679688 91.566406 106.304688 91.847656 104.90625 91.886719 C 103.894531 91.914062 102.898438 91.863281 101.894531 91.804688 C 101.621094 91.65625 101.339844 91.664062 101.03125 91.625 C 100.589844 91.570312 100.144531 91.503906 99.707031 91.417969 C 99.347656 91.347656 98.949219 91.273438 99.289062 90.878906 C 99.386719 90.765625 99.503906 90.699219 99.605469 90.59375 C 99.980469 90.480469 100.429688 90.453125 100.820312 90.398438 C 101.65625 90.285156 102.5 90.222656 103.34375 90.191406 C 105.246094 90.125 107.144531 90.265625 109.046875 90.296875 C 110.417969 90.320312 111.730469 89.976562 113.089844 89.921875 C 114.898438 89.847656 116.753906 90 118.570312 89.980469 C 118.875 89.980469 118.851562 89.511719 118.546875 89.511719 C 117.191406 89.507812 115.832031 89.496094 114.476562 89.414062 C 113.632812 89.363281 112.855469 89.414062 112.058594 89.492188 C 112.03125 89.445312 111.988281 89.40625 111.921875 89.390625 C 111.046875 89.179688 110.144531 89.296875 109.253906 89.246094 C 107.9375 89.175781 106.640625 89.082031 105.320312 89.082031 C 103.824219 89.078125 102.242188 89.113281 100.703125 89.308594 C 100.105469 89.25 99.507812 89.191406 98.90625 89.113281 C 98.042969 89 97.207031 89.101562 96.34375 89.167969 C 96.023438 89.191406 95.695312 89.226562 95.375 89.226562 L 94.996094 89.238281 C 94.210938 89.328125 94 88.980469 94.355469 88.195312 L 115.839844 88.195312 " fill-opacity="1" fill-rule="nonzero"/></g><g clip-path="url(#7a76226e5c)"><path fill="#577399" d="M 58.75 58.761719 C 60.519531 59.246094 62.265625 59.816406 63.984375 60.453125 C 66.609375 61.433594 69.175781 62.5625 71.691406 63.796875 C 72.035156 63.964844 72.378906 64.144531 72.722656 64.316406 C 72.117188 64.0625 71.460938 63.902344 70.730469 63.871094 C 69.78125 63.832031 68.835938 63.972656 67.886719 63.796875 C 66.902344 63.617188 65.945312 63.210938 65.039062 62.808594 C 63.636719 62.183594 62.253906 61.421875 61.070312 60.445312 C 60.320312 59.828125 59.585938 59.164062 58.75 58.761719 Z M 73.523438 64.722656 C 76.867188 66.457031 80.109375 68.375 83.265625 70.425781 C 83.15625 70.542969 83.070312 70.695312 83.003906 70.804688 C 82.90625 70.96875 82.816406 71.136719 82.730469 71.308594 C 82.714844 71.308594 82.699219 71.304688 82.683594 71.304688 C 82.160156 71.304688 81.714844 71.628906 81.535156 72.089844 C 78.238281 70.605469 76.519531 66.511719 73.523438 64.722656 Z M 48.882812 92.683594 C 49.316406 92.019531 49.777344 91.375 50.144531 90.664062 C 50.722656 89.554688 51.09375 88.335938 51.199219 87.082031 C 51.285156 86.035156 51.214844 84.992188 51.0625 83.960938 C 50.824219 82.339844 50.386719 80.738281 50.039062 79.15625 C 49.402344 76.269531 49.109375 73.234375 49.335938 70.277344 C 49.445312 68.839844 49.769531 67.433594 50.375 66.121094 C 50.90625 64.960938 51.648438 63.890625 52.351562 62.828125 C 53.417969 61.222656 54.835938 59.347656 56.71875 58.632812 C 56.734375 58.636719 56.75 58.640625 56.765625 58.640625 C 56.957031 58.640625 57.140625 58.65625 57.324219 58.679688 C 57.253906 58.867188 57.378906 59.109375 57.578125 59.15625 C 57.8125 59.210938 57.988281 59.042969 58.011719 58.835938 C 60.054688 59.464844 61.695312 61.511719 63.542969 62.535156 C 65.585938 63.667969 67.632812 64.261719 69.949219 64.277344 C 70.996094 64.285156 71.863281 64.378906 72.679688 64.683594 C 72.597656 64.835938 72.625 65.03125 72.800781 65.132812 C 72.996094 65.242188 73.199219 65.132812 73.269531 64.949219 C 73.640625 65.140625 74.007812 65.386719 74.386719 65.695312 C 75.351562 66.488281 76.109375 67.476562 76.90625 68.425781 C 78.117188 69.855469 79.710938 71.492188 81.476562 72.28125 C 81.457031 72.363281 81.449219 72.449219 81.449219 72.535156 C 81.449219 73.214844 82 73.769531 82.683594 73.769531 C 83.363281 73.769531 83.914062 73.214844 83.914062 72.535156 C 83.914062 72.117188 83.703125 71.746094 83.386719 71.523438 C 83.449219 71.390625 83.515625 71.253906 83.585938 71.121094 C 83.648438 71.003906 83.726562 70.886719 83.777344 70.761719 C 84.457031 71.207031 85.132812 71.660156 85.804688 72.117188 C 85.792969 72.285156 85.859375 72.449219 86.003906 72.546875 C 86.578125 72.945312 87.085938 73.296875 87.523438 73.609375 C 87.507812 73.648438 87.5 73.6875 87.511719 73.734375 C 87.539062 73.828125 87.625 73.898438 87.707031 73.945312 C 87.804688 74.003906 87.949219 74.039062 88.082031 74.03125 C 88.125 74.210938 88.222656 74.375 88.371094 74.496094 C 88.359375 74.5 88.347656 74.507812 88.339844 74.515625 C 88.171875 74.71875 87.820312 75.339844 88.171875 75.535156 C 88.316406 75.613281 88.515625 75.523438 88.667969 75.503906 C 88.855469 75.476562 89.042969 75.480469 89.230469 75.492188 C 89.300781 75.511719 89.375 75.53125 89.449219 75.546875 C 89.582031 75.582031 89.707031 75.617188 89.832031 75.652344 L 92.433594 77.703125 L 92.574219 77.808594 C 92.640625 77.859375 92.710938 77.90625 92.777344 77.949219 C 92.917969 78.035156 93.0625 78.109375 93.214844 78.179688 C 93.519531 78.3125 93.839844 78.402344 94.171875 78.441406 C 94.558594 78.484375 94.691406 78.476562 94.925781 78.496094 L 95.296875 78.515625 C 95.484375 78.472656 95.664062 78.410156 95.835938 78.316406 C 96.230469 78.097656 96.570312 77.8125 96.988281 77.640625 C 97.046875 77.617188 97.128906 77.667969 97.140625 77.726562 C 97.199219 78.070312 97.203125 78.410156 97.164062 78.753906 L 97.164062 80.464844 C 96.488281 80.035156 95.777344 79.652344 95.171875 79.113281 C 94.949219 78.90625 94.542969 78.84375 94.296875 79.039062 C 93.371094 79.753906 92.765625 80.667969 92.070312 81.585938 C 91.46875 82.390625 90.816406 83.132812 90.25 83.960938 C 96.402344 82.855469 102.910156 84.609375 105.367188 83.089844 C 106.492188 82.394531 105.460938 78.304688 105.476562 77.746094 C 105.476562 77.671875 105.4375 76.726562 105.222656 75.480469 C 105.085938 74.6875 104.875 73.90625 104.5 73.289062 C 104.203125 72.34375 103.417969 71.621094 102.4375 71.425781 C 102.339844 71.226562 102.230469 71.03125 102.097656 70.832031 C 101.945312 70.609375 101.769531 70.414062 101.582031 70.238281 C 102.199219 69.796875 102.667969 69.15625 102.882812 68.410156 C 103.023438 67.914062 103.332031 67.296875 103.039062 66.582031 C 103.019531 66.558594 103.003906 66.539062 102.984375 66.515625 C 102.753906 64.847656 101.332031 63.566406 99.605469 63.566406 C 97.886719 63.566406 96.464844 64.839844 96.230469 66.496094 C 95.859375 66.835938 95.457031 67.148438 94.882812 67.191406 C 94.398438 67.230469 94.066406 67.886719 94.5 68.234375 C 95.148438 68.761719 95.785156 68.855469 96.453125 68.777344 C 96.457031 68.777344 96.457031 68.78125 96.457031 68.785156 C 96.460938 68.785156 96.464844 68.785156 96.464844 68.78125 C 96.542969 68.738281 96.617188 68.714844 96.730469 68.734375 C 96.800781 68.75 96.828125 68.824219 96.816406 68.886719 C 96.792969 69.027344 96.789062 69.171875 96.789062 69.3125 C 96.800781 69.394531 96.839844 69.445312 96.945312 69.46875 C 97 69.480469 97.046875 69.480469 97.097656 69.5 C 97.164062 69.492188 97.230469 69.503906 97.296875 69.546875 C 97.320312 69.5625 97.359375 69.601562 97.398438 69.804688 C 97.425781 69.9375 97.421875 69.960938 97.445312 69.972656 C 97.496094 70 97.570312 69.910156 97.746094 69.8125 C 97.828125 69.769531 97.894531 69.742188 97.9375 69.722656 C 97.902344 69.921875 97.855469 70.015625 97.816406 70.0625 C 97.8125 70.066406 97.8125 70.074219 97.804688 70.082031 C 97.742188 70.148438 97.75 70.238281 97.777344 70.328125 C 98.195312 70.59375 98.667969 70.78125 99.1875 70.84375 C 99.265625 71.039062 99.351562 71.222656 99.4375 71.40625 C 98.148438 71.632812 97.167969 72.757812 97.167969 74.113281 L 97.167969 74.585938 C 97.105469 74.640625 97.046875 74.699219 96.976562 74.761719 C 96.699219 75.007812 96.363281 75.195312 96.042969 75.375 C 95.609375 75.617188 95.152344 75.773438 94.699219 75.949219 L 94.394531 75.96875 C 94.300781 75.96875 94.203125 75.960938 94.105469 75.9375 C 94.058594 75.921875 94.007812 75.90625 93.960938 75.886719 L 93.894531 75.855469 C 93.878906 75.847656 93.808594 75.804688 93.769531 75.78125 L 90.914062 74.039062 C 90.910156 74.03125 90.90625 74.023438 90.898438 74.015625 C 90.765625 73.894531 90.628906 73.769531 90.507812 73.632812 C 90.394531 73.558594 90.289062 73.476562 90.1875 73.378906 C 90.140625 73.339844 90.097656 73.300781 90.054688 73.261719 C 89.992188 73.246094 89.933594 73.226562 89.871094 73.203125 C 89.789062 73.171875 89.671875 73.082031 89.5625 73.023438 C 89.492188 72.996094 89.414062 72.980469 89.335938 72.976562 C 89.324219 73.003906 89.308594 73.027344 89.296875 73.058594 C 89.175781 72.996094 89.046875 72.976562 88.917969 72.976562 C 88.714844 72.710938 88.246094 72.660156 87.953125 72.605469 C 87.910156 72.597656 87.871094 72.617188 87.84375 72.640625 C 87.460938 72.371094 87.035156 72.070312 86.558594 71.742188 C 86.410156 71.640625 86.222656 71.640625 86.074219 71.714844 C 81.519531 68.65625 76.785156 65.863281 71.847656 63.476562 C 69.316406 62.253906 66.730469 61.140625 64.089844 60.179688 C 62.109375 59.460938 60.097656 58.828125 58.058594 58.320312 C 57.871094 58.273438 57.683594 58.226562 57.5 58.183594 C 56.996094 58.066406 56.492188 57.953125 55.984375 57.847656 C 55.921875 57.835938 55.863281 57.875 55.851562 57.9375 C 55.839844 57.996094 55.878906 58.058594 55.9375 58.070312 C 56.292969 58.144531 56.648438 58.222656 57 58.308594 C 54.808594 58.988281 53.25 61.136719 52.015625 62.960938 C 51.207031 64.152344 50.40625 65.371094 49.886719 66.71875 C 49.34375 68.128906 49.125 69.625 49.070312 71.132812 C 48.96875 74.109375 49.300781 77.019531 49.945312 79.921875 C 50.242188 81.261719 50.558594 82.605469 50.742188 83.960938 C 50.945312 85.425781 50.992188 86.902344 50.695312 88.390625 C 50.378906 89.980469 49.550781 91.222656 48.671875 92.542969 C 48.667969 92.546875 48.667969 92.550781 48.664062 92.554688 C 48.582031 92.546875 48.5 92.578125 48.449219 92.671875 C 48.371094 92.808594 48.226562 92.90625 48.132812 93.03125 C 48.066406 93.117188 48.019531 93.210938 47.957031 93.296875 C 47.851562 93.445312 47.859375 93.644531 47.972656 93.773438 C 47.96875 93.773438 47.96875 93.777344 47.96875 93.78125 C 48.015625 93.800781 48.066406 93.820312 48.117188 93.84375 C 48.140625 93.855469 48.15625 93.871094 48.167969 93.890625 C 48.167969 93.890625 48.167969 93.890625 48.171875 93.890625 C 48.378906 93.9375 48.578125 93.789062 48.621094 93.574219 C 48.636719 93.488281 48.699219 93.417969 48.738281 93.34375 C 48.8125 93.203125 48.867188 93.050781 48.917969 92.902344 C 48.945312 92.820312 48.921875 92.742188 48.882812 92.683594 " fill-opacity="1" fill-rule="nonzero"/></g><g clip-path="url(#8ed3e4a02f)"><path fill="#577399" d="M 126.710938 88.195312 C 127.582031 87.128906 128.886719 85.273438 129.699219 82.648438 C 130.589844 79.765625 130.480469 77.28125 130.3125 75.871094 C 121.898438 77.5625 111.351562 78.964844 99.183594 78.953125 C 87.152344 78.941406 76.714844 77.546875 68.363281 75.871094 C 68.226562 77.46875 68.207031 80.179688 69.289062 83.265625 C 70.058594 85.457031 71.125 87.101562 71.96875 88.195312 L 96.925781 88.195312 C 96.9375 88.226562 96.925781 88.257812 96.871094 88.300781 C 96.859375 88.3125 96.847656 88.324219 96.832031 88.332031 C 96.804688 88.328125 96.78125 88.320312 96.753906 88.316406 C 96.546875 88.324219 96.300781 88.253906 96.089844 88.246094 C 95.453125 88.226562 94.839844 88.375 94.222656 88.515625 C 92.203125 88.980469 90.347656 88.945312 88.289062 88.886719 C 86.539062 88.835938 84.753906 88.972656 83.011719 89.125 C 81.796875 89.226562 80.804688 89.761719 79.644531 90 C 79.601562 90.011719 79.570312 90.03125 79.550781 90.0625 C 79.371094 90.023438 79.1875 90.003906 79.011719 89.980469 C 77.84375 89.835938 76.644531 89.914062 75.472656 89.90625 C 74.011719 89.898438 72.535156 89.820312 71.078125 89.992188 C 70.824219 90.023438 70.847656 90.402344 71.09375 90.429688 C 72.199219 90.570312 73.320312 90.601562 74.4375 90.625 C 75.816406 90.65625 77.554688 90.425781 78.878906 90.703125 C 79.285156 90.789062 79.621094 90.953125 79.949219 91.125 C 80.082031 91.191406 80.15625 91.371094 80.324219 91.417969 C 81.273438 91.675781 82.589844 91.246094 83.570312 91.191406 C 88.949219 90.890625 94.347656 91.386719 99.722656 90.96875 C 100.875 90.875 102.3125 90.5625 103.476562 90.765625 C 103.480469 90.785156 103.484375 90.808594 103.484375 90.832031 C 103.480469 90.886719 103.457031 90.933594 103.433594 90.980469 C 102.902344 91.160156 102.289062 91.210938 101.738281 91.261719 C 99.308594 91.488281 96.84375 91.273438 94.40625 91.398438 C 91.507812 91.546875 88.652344 91.847656 85.75 91.820312 C 83.011719 91.796875 80.289062 91.613281 77.550781 91.613281 C 77.222656 91.613281 77.21875 92.125 77.546875 92.125 C 80.105469 92.125 82.617188 92.300781 85.164062 92.539062 C 87.539062 92.757812 89.835938 92.59375 92.203125 92.398438 C 93.050781 92.328125 93.894531 92.28125 94.738281 92.25 C 95.363281 92.359375 96.253906 92.492188 96.480469 92.625 C 96.46875 92.621094 96.460938 92.621094 96.449219 92.617188 C 96.28125 92.609375 96.117188 92.601562 95.953125 92.59375 C 95.46875 92.570312 94.984375 92.488281 94.5 92.488281 C 93.417969 92.492188 92.347656 92.726562 91.285156 92.902344 C 89.070312 93.269531 86.976562 92.953125 84.757812 93.007812 C 82.179688 93.074219 79.636719 93.425781 77.054688 93.492188 C 76.140625 93.515625 75.222656 93.523438 74.316406 93.441406 C 73.195312 93.339844 71.964844 93.445312 70.875 93.191406 C 70.578125 93.121094 70.457031 93.632812 70.75 93.714844 C 71.800781 94.007812 72.9375 93.863281 74.019531 93.964844 C 75.402344 94.09375 76.773438 94.082031 78.15625 94.03125 C 81.394531 93.914062 84.578125 93.578125 87.820312 93.820312 C 88.546875 93.875 89.257812 93.832031 89.96875 93.746094 C 89.96875 93.808594 90.003906 93.875 90.070312 93.875 C 90.675781 93.867188 92.359375 93.445312 92.714844 94.269531 C 91.734375 94.335938 90.757812 94.355469 89.777344 94.394531 C 88.25 94.457031 86.597656 94.472656 85.148438 95.007812 C 84.902344 95.097656 84.964844 95.539062 85.238281 95.527344 C 85.890625 95.5 86.539062 95.5 87.1875 95.511719 C 87.246094 95.539062 87.3125 95.558594 87.394531 95.554688 C 87.734375 95.550781 88.078125 95.546875 88.425781 95.539062 C 90.339844 95.59375 92.246094 95.667969 94.191406 95.425781 C 97.507812 95.011719 100.816406 95.003906 104.132812 95.5 C 106.902344 95.914062 109.5 95.757812 112.292969 95.679688 C 114.507812 95.617188 116.609375 95.035156 118.808594 94.921875 C 119.066406 94.910156 119.085938 94.515625 118.824219 94.519531 C 118.050781 94.527344 117.292969 94.644531 116.539062 94.773438 C 115.738281 94.585938 114.992188 94.625 114.15625 94.648438 C 112.738281 94.679688 111.359375 94.402344 109.949219 94.257812 C 108.761719 94.132812 107.507812 94.101562 106.308594 94.183594 C 105.253906 94.257812 104.242188 94.578125 103.191406 94.566406 C 103.132812 94.554688 103.078125 94.542969 103.019531 94.53125 C 102.859375 94.5 102.589844 94.515625 102.460938 94.421875 C 102.351562 94.347656 102.324219 94.273438 102.332031 94.199219 C 102.761719 94.050781 103.316406 93.9375 103.789062 93.863281 C 104.359375 93.949219 104.929688 93.953125 105.539062 93.894531 C 107.070312 93.757812 108.523438 93.777344 110.0625 93.75 C 110.148438 93.75 110.234375 93.746094 110.324219 93.742188 C 110.441406 93.757812 110.554688 93.769531 110.667969 93.789062 C 111.441406 93.90625 112.183594 93.773438 112.957031 93.777344 C 114.007812 93.78125 115.035156 94.039062 116.085938 94.011719 C 116.832031 93.988281 117.472656 93.773438 118.195312 93.628906 C 119.398438 93.390625 120.640625 93.429688 121.835938 93.683594 C 121.957031 93.710938 122.019531 93.535156 121.898438 93.503906 C 120.59375 93.128906 119.363281 93.171875 118.125 93.269531 C 118.113281 93.128906 118.027344 93.003906 117.847656 92.996094 C 116.429688 92.945312 115.011719 92.820312 113.605469 92.769531 C 112.410156 92.722656 111.25 93.003906 110.050781 93.054688 C 109.566406 93.078125 109.085938 93.058594 108.605469 93.042969 C 108.171875 93.019531 107.730469 93.011719 107.261719 93.027344 C 107.066406 93.035156 106.011719 93.078125 104.839844 93.21875 C 104.503906 93.050781 104.09375 92.820312 104.121094 92.757812 C 104.152344 92.683594 104.574219 92.703125 104.644531 92.675781 C 105.296875 92.421875 106.316406 92.605469 107.015625 92.613281 C 108.46875 92.632812 109.875 92.363281 111.320312 92.320312 C 112.726562 92.28125 114.125 92.5 115.542969 92.421875 C 117.023438 92.339844 118.453125 91.886719 119.9375 91.820312 C 120.125 91.808594 120.144531 91.515625 119.949219 91.519531 C 118.550781 91.566406 117.175781 91.847656 115.777344 91.886719 C 114.765625 91.914062 113.769531 91.863281 112.765625 91.804688 C 112.488281 91.65625 112.210938 91.664062 111.902344 91.625 C 111.457031 91.570312 111.015625 91.503906 110.578125 91.417969 C 110.21875 91.347656 109.820312 91.273438 110.160156 90.878906 C 110.257812 90.765625 110.375 90.699219 110.472656 90.59375 C 110.851562 90.480469 111.300781 90.453125 111.691406 90.398438 C 112.527344 90.285156 113.371094 90.222656 114.214844 90.191406 C 116.117188 90.125 118.015625 90.265625 119.917969 90.296875 C 121.289062 90.320312 122.601562 89.976562 123.960938 89.921875 C 125.769531 89.847656 127.625 90 129.441406 89.980469 C 129.746094 89.980469 129.722656 89.511719 129.417969 89.511719 C 128.058594 89.507812 126.703125 89.496094 125.347656 89.414062 C 124.503906 89.363281 123.722656 89.414062 122.929688 89.492188 C 122.902344 89.445312 122.859375 89.40625 122.792969 89.390625 C 121.917969 89.179688 121.015625 89.296875 120.125 89.246094 C 118.808594 89.175781 117.511719 89.082031 116.191406 89.082031 C 114.695312 89.078125 113.109375 89.113281 111.574219 89.308594 C 110.976562 89.25 110.378906 89.191406 109.777344 89.113281 C 108.914062 89 108.078125 89.101562 107.214844 89.167969 C 106.894531 89.191406 106.566406 89.226562 106.246094 89.226562 L 105.867188 89.238281 C 105.082031 89.328125 104.871094 88.980469 105.226562 88.195312 L 126.710938 88.195312 " fill-opacity="1" fill-rule="nonzero"/></g><g clip-path="url(#5263f62437)"><path fill="#577399" d="M 69.621094 58.761719 C 71.390625 59.246094 73.136719 59.816406 74.855469 60.453125 C 77.480469 61.433594 80.046875 62.5625 82.5625 63.796875 C 82.90625 63.964844 83.246094 64.144531 83.589844 64.316406 C 82.988281 64.0625 82.332031 63.902344 81.601562 63.871094 C 80.652344 63.832031 79.707031 63.972656 78.757812 63.796875 C 77.773438 63.617188 76.816406 63.210938 75.90625 62.808594 C 74.507812 62.183594 73.125 61.421875 71.941406 60.445312 C 71.191406 59.828125 70.457031 59.164062 69.621094 58.761719 Z M 84.394531 64.722656 C 87.738281 66.457031 90.980469 68.375 94.132812 70.425781 C 94.027344 70.542969 93.941406 70.695312 93.875 70.804688 C 93.777344 70.96875 93.6875 71.136719 93.601562 71.308594 C 93.585938 71.308594 93.570312 71.304688 93.550781 71.304688 C 93.03125 71.304688 92.585938 71.628906 92.40625 72.089844 C 89.109375 70.605469 87.390625 66.511719 84.394531 64.722656 Z M 59.753906 92.683594 C 60.1875 92.019531 60.648438 91.375 61.015625 90.664062 C 61.59375 89.554688 61.964844 88.335938 62.066406 87.082031 C 62.15625 86.035156 62.085938 84.992188 61.933594 83.960938 C 61.695312 82.339844 61.257812 80.738281 60.910156 79.15625 C 60.273438 76.269531 59.980469 73.234375 60.207031 70.277344 C 60.316406 68.839844 60.640625 67.433594 61.246094 66.121094 C 61.777344 64.960938 62.519531 63.890625 63.222656 62.828125 C 64.289062 61.222656 65.707031 59.347656 67.589844 58.632812 C 67.601562 58.636719 67.621094 58.640625 67.636719 58.640625 C 67.828125 58.640625 68.011719 58.65625 68.195312 58.679688 C 68.125 58.867188 68.25 59.109375 68.449219 59.15625 C 68.683594 59.210938 68.859375 59.042969 68.878906 58.835938 C 70.925781 59.464844 72.566406 61.511719 74.414062 62.535156 C 76.457031 63.667969 78.503906 64.261719 80.820312 64.277344 C 81.867188 64.285156 82.734375 64.378906 83.550781 64.683594 C 83.46875 64.835938 83.496094 65.03125 83.671875 65.132812 C 83.863281 65.242188 84.070312 65.132812 84.140625 64.949219 C 84.511719 65.140625 84.878906 65.386719 85.257812 65.695312 C 86.222656 66.488281 86.980469 67.476562 87.777344 68.425781 C 88.984375 69.855469 90.578125 71.492188 92.34375 72.28125 C 92.328125 72.363281 92.320312 72.449219 92.320312 72.535156 C 92.320312 73.214844 92.871094 73.769531 93.550781 73.769531 C 94.234375 73.769531 94.785156 73.214844 94.785156 72.535156 C 94.785156 72.117188 94.574219 71.746094 94.253906 71.523438 C 94.320312 71.390625 94.386719 71.253906 94.457031 71.121094 C 94.519531 71.003906 94.597656 70.886719 94.648438 70.761719 C 95.328125 71.207031 96.003906 71.660156 96.675781 72.117188 C 96.664062 72.285156 96.730469 72.449219 96.875 72.546875 C 97.449219 72.945312 97.957031 73.296875 98.394531 73.609375 C 98.378906 73.648438 98.371094 73.6875 98.382812 73.734375 C 98.410156 73.828125 98.492188 73.898438 98.578125 73.945312 C 98.675781 74.003906 98.820312 74.039062 98.953125 74.03125 C 98.996094 74.210938 99.09375 74.375 99.242188 74.496094 C 99.230469 74.5 99.21875 74.507812 99.210938 74.515625 C 99.039062 74.71875 98.6875 75.339844 99.042969 75.535156 C 99.1875 75.613281 99.386719 75.523438 99.539062 75.503906 C 99.726562 75.476562 99.914062 75.480469 100.097656 75.492188 C 100.171875 75.511719 100.246094 75.53125 100.320312 75.546875 C 100.453125 75.582031 100.578125 75.617188 100.703125 75.652344 L 103.304688 77.703125 L 103.445312 77.808594 C 103.511719 77.859375 103.582031 77.90625 103.648438 77.949219 C 103.789062 78.035156 103.933594 78.109375 104.085938 78.179688 C 104.390625 78.3125 104.710938 78.402344 105.042969 78.441406 C 105.429688 78.484375 105.5625 78.476562 105.796875 78.496094 L 106.167969 78.515625 C 106.355469 78.472656 106.535156 78.410156 106.707031 78.316406 C 107.101562 78.097656 107.441406 77.8125 107.859375 77.640625 C 107.917969 77.617188 108 77.667969 108.011719 77.726562 C 108.070312 78.070312 108.074219 78.410156 108.035156 78.753906 L 108.035156 80.464844 C 107.359375 80.035156 106.648438 79.652344 106.042969 79.113281 C 105.820312 78.90625 105.414062 78.84375 105.167969 79.039062 C 104.238281 79.753906 103.632812 80.667969 102.941406 81.585938 C 102.339844 82.390625 101.683594 83.132812 101.121094 83.960938 C 107.273438 82.855469 113.78125 84.609375 116.238281 83.089844 C 117.363281 82.394531 116.332031 78.304688 116.347656 77.746094 C 116.347656 77.671875 116.308594 76.726562 116.09375 75.480469 C 115.957031 74.6875 115.746094 73.90625 115.371094 73.289062 C 115.074219 72.34375 114.289062 71.621094 113.308594 71.425781 C 113.210938 71.226562 113.101562 71.03125 112.96875 70.832031 C 112.816406 70.609375 112.640625 70.414062 112.449219 70.238281 C 113.070312 69.796875 113.539062 69.15625 113.753906 68.410156 C 113.894531 67.914062 114.203125 67.296875 113.910156 66.582031 C 113.890625 66.558594 113.875 66.539062 113.855469 66.515625 C 113.625 64.847656 112.203125 63.566406 110.476562 63.566406 C 108.753906 63.566406 107.335938 64.839844 107.101562 66.496094 C 106.730469 66.835938 106.328125 67.148438 105.753906 67.191406 C 105.269531 67.230469 104.9375 67.886719 105.371094 68.234375 C 106.019531 68.761719 106.65625 68.855469 107.324219 68.777344 C 107.328125 68.777344 107.328125 68.78125 107.328125 68.785156 C 107.332031 68.785156 107.332031 68.785156 107.335938 68.78125 C 107.414062 68.738281 107.488281 68.714844 107.601562 68.734375 C 107.671875 68.75 107.695312 68.824219 107.6875 68.886719 C 107.664062 69.027344 107.660156 69.171875 107.660156 69.3125 C 107.671875 69.394531 107.710938 69.445312 107.816406 69.46875 C 107.867188 69.480469 107.917969 69.480469 107.96875 69.5 C 108.035156 69.492188 108.101562 69.503906 108.164062 69.546875 C 108.191406 69.5625 108.230469 69.601562 108.269531 69.804688 C 108.296875 69.9375 108.292969 69.960938 108.316406 69.972656 C 108.367188 70 108.441406 69.910156 108.617188 69.8125 C 108.699219 69.769531 108.765625 69.742188 108.808594 69.722656 C 108.773438 69.921875 108.726562 70.015625 108.6875 70.0625 C 108.683594 70.066406 108.679688 70.074219 108.675781 70.082031 C 108.613281 70.148438 108.621094 70.238281 108.648438 70.328125 C 109.066406 70.59375 109.539062 70.78125 110.054688 70.84375 C 110.136719 71.039062 110.222656 71.222656 110.308594 71.40625 C 109.019531 71.632812 108.039062 72.757812 108.039062 74.113281 L 108.039062 74.585938 C 107.976562 74.640625 107.917969 74.699219 107.847656 74.761719 C 107.570312 75.007812 107.234375 75.195312 106.914062 75.375 C 106.476562 75.617188 106.023438 75.773438 105.570312 75.949219 L 105.265625 75.96875 C 105.171875 75.96875 105.074219 75.960938 104.976562 75.9375 C 104.929688 75.921875 104.878906 75.90625 104.832031 75.886719 L 104.761719 75.855469 C 104.746094 75.847656 104.679688 75.804688 104.640625 75.78125 L 101.785156 74.039062 C 101.78125 74.03125 101.777344 74.023438 101.769531 74.015625 C 101.636719 73.894531 101.5 73.769531 101.378906 73.632812 C 101.265625 73.558594 101.160156 73.476562 101.058594 73.378906 C 101.011719 73.339844 100.96875 73.300781 100.925781 73.261719 C 100.863281 73.246094 100.804688 73.226562 100.742188 73.203125 C 100.660156 73.171875 100.542969 73.082031 100.433594 73.023438 C 100.363281 72.996094 100.285156 72.980469 100.207031 72.976562 C 100.195312 73.003906 100.179688 73.027344 100.167969 73.058594 C 100.046875 72.996094 99.917969 72.976562 99.789062 72.976562 C 99.585938 72.710938 99.117188 72.660156 98.824219 72.605469 C 98.78125 72.597656 98.742188 72.617188 98.714844 72.640625 C 98.332031 72.371094 97.90625 72.070312 97.429688 71.742188 C 97.28125 71.640625 97.09375 71.640625 96.945312 71.714844 C 92.390625 68.65625 87.65625 65.863281 82.71875 63.476562 C 80.1875 62.253906 77.601562 61.140625 74.957031 60.179688 C 72.980469 59.460938 70.96875 58.828125 68.929688 58.320312 C 68.742188 58.273438 68.554688 58.226562 68.371094 58.183594 C 67.867188 58.066406 67.363281 57.953125 66.855469 57.847656 C 66.792969 57.835938 66.734375 57.875 66.71875 57.9375 C 66.710938 57.996094 66.746094 58.058594 66.808594 58.070312 C 67.164062 58.144531 67.519531 58.222656 67.871094 58.308594 C 65.679688 58.988281 64.121094 61.136719 62.886719 62.960938 C 62.078125 64.152344 61.277344 65.371094 60.757812 66.71875 C 60.214844 68.128906 59.996094 69.625 59.941406 71.132812 C 59.835938 74.109375 60.171875 77.019531 60.816406 79.921875 C 61.113281 81.261719 61.429688 82.605469 61.613281 83.960938 C 61.8125 85.425781 61.863281 86.902344 61.566406 88.390625 C 61.246094 89.980469 60.421875 91.222656 59.542969 92.542969 C 59.539062 92.546875 59.539062 92.550781 59.535156 92.554688 C 59.453125 92.546875 59.371094 92.578125 59.316406 92.671875 C 59.242188 92.808594 59.097656 92.90625 59.003906 93.03125 C 58.9375 93.117188 58.886719 93.210938 58.828125 93.296875 C 58.722656 93.445312 58.730469 93.644531 58.84375 93.773438 C 58.839844 93.773438 58.839844 93.777344 58.835938 93.78125 C 58.886719 93.800781 58.9375 93.820312 58.988281 93.84375 C 59.011719 93.855469 59.027344 93.871094 59.039062 93.890625 C 59.25 93.9375 59.449219 93.789062 59.492188 93.574219 C 59.507812 93.488281 59.570312 93.417969 59.609375 93.34375 C 59.683594 93.203125 59.738281 93.050781 59.785156 92.902344 C 59.8125 92.820312 59.792969 92.742188 59.753906 92.683594 " fill-opacity="1" fill-rule="nonzero"/></g><g clip-path="url(#ef84ada4d5)"><path fill="#ffffff" d="M 152.625 78.035156 L 116.792969 78.035156 C 116.378906 78.035156 116.039062 77.699219 116.039062 77.28125 L 116.039062 60.144531 C 116.039062 59.730469 116.378906 59.394531 116.792969 59.394531 L 152.625 59.394531 C 153.039062 59.394531 153.375 59.730469 153.375 60.144531 L 153.375 77.28125 C 153.375 77.699219 153.039062 78.035156 152.625 78.035156 Z M 152.625 78.035156 " fill-opacity="1" fill-rule="nonzero"/></g><g fill="#bdd5ea" fill-opacity="1"><g transform="translate(137.276749, 50.73333)"><g><path d="M 8.332031 0.359375 L 9.347656 0.359375 L 10.265625 0.261719 L 10.988281 0.261719 L 12.300781 0.0664062 L 12.890625 -0.296875 L 14.726562 -1.148438 L 15.1875 -1.542969 L 15.746094 -1.933594 L 17.054688 -3.378906 L 17.613281 -4.492188 L 18.039062 -5.902344 L 18.203125 -7.511719 L 18.140625 -16.203125 L 18.238281 -16.792969 L 18.171875 -22.007812 L 17.84375 -22.664062 L 16.828125 -22.925781 L 15.1875 -22.960938 L 14.496094 -22.894531 L 11.875 -22.992188 L 11.152344 -22.894531 L 10.199219 -23.058594 L 9.21875 -22.894531 L 8.527344 -22.894531 L 7.839844 -22.601562 L 7.480469 -22.042969 L 7.542969 -21.351562 L 7.511719 -20.730469 L 7.542969 -19.941406 L 7.480469 -19.417969 L 7.542969 -18.761719 L 7.773438 -18.074219 L 8.527344 -17.746094 L 9.152344 -17.648438 L 10.101562 -17.648438 L 11.121094 -17.710938 L 11.808594 -17.351562 L 12.167969 -16.726562 L 12.039062 -6.660156 L 11.777344 -6.003906 L 11.414062 -5.542969 L 10.265625 -4.984375 L 9.316406 -4.886719 L 8.398438 -5.085938 L 7.742188 -5.3125 L 7.152344 -5.640625 L 6.691406 -6.066406 L 6.460938 -6.625 L 6.265625 -7.640625 L 6.230469 -9.117188 L 6.296875 -9.710938 L 5.9375 -10.300781 L 5.214844 -10.5625 L 3.148438 -10.628906 L 2.492188 -10.5625 L 1.769531 -10.5625 L 1.050781 -10.265625 L 0.722656 -9.644531 L 0.6875 -8.496094 L 0.789062 -7.542969 L 0.753906 -6.558594 L 0.820312 -5.902344 L 1.015625 -5.25 L 1.476562 -4.066406 L 2.527344 -2.363281 L 3.050781 -1.871094 L 4.558594 -0.722656 L 5.773438 -0.261719 L 6.363281 -0.132812 L 7.085938 0.164062 L 7.675781 0.164062 Z M 8.332031 0.359375 "/></g></g></g><g fill="#bdd5ea" fill-opacity="1"><g transform="translate(164.301353, 50.73333)"><g><path d="M 12.265625 0.394531 L 14.105469 0.359375 L 16.074219 0.0976562 L 18.53125 -0.722656 L 19.613281 -1.3125 L 20.105469 -1.707031 L 20.730469 -2 L 21.648438 -2.789062 L 22.074219 -3.378906 L 22.535156 -3.835938 L 23.976562 -6.035156 L 24.46875 -7.28125 L 24.730469 -8.527344 L 24.765625 -9.117188 L 24.929688 -9.773438 L 24.960938 -10.464844 L 25.09375 -11.414062 L 24.992188 -13.054688 L 24.765625 -14.398438 L 23.945312 -16.859375 L 23.320312 -18.074219 L 22.601562 -19.058594 L 21.679688 -20.074219 L 20.730469 -20.894531 L 19.976562 -21.417969 L 18.992188 -21.84375 L 18.5 -22.207031 L 15.972656 -22.992188 L 14.070312 -23.320312 L 13.1875 -23.355469 L 9.710938 -22.863281 L 7.25 -21.945312 L 6.757812 -21.582031 L 6.167969 -21.289062 L 5.050781 -20.46875 L 3.445312 -18.597656 L 2.425781 -16.859375 L 1.933594 -15.613281 L 1.378906 -13.085938 L 1.277344 -10.429688 L 1.378906 -9.742188 L 1.542969 -9.152344 L 1.605469 -8.527344 L 1.902344 -7.28125 L 3.410156 -4.296875 L 3.804688 -3.902344 L 4.230469 -3.378906 L 4.722656 -2.917969 L 5.085938 -2.492188 L 6.167969 -1.640625 L 8.726562 -0.328125 L 9.675781 0 L 10.398438 0.0664062 L 11.578125 0.328125 Z M 14.105469 -5.410156 L 12.300781 -5.410156 L 11.578125 -5.511719 L 10.398438 -6.003906 L 9.871094 -6.296875 L 8.988281 -7.019531 L 8.5625 -7.480469 L 8.101562 -8.101562 L 7.9375 -8.625 L 7.640625 -9.21875 L 7.378906 -10.429688 L 7.378906 -12.429688 L 7.542969 -13.023438 L 7.640625 -13.644531 L 7.90625 -14.234375 L 8.101562 -14.824219 L 8.890625 -15.875 L 10.527344 -16.992188 L 10.957031 -17.15625 L 12.234375 -17.484375 L 13.152344 -17.546875 L 14.726562 -17.351562 L 15.316406 -17.21875 L 15.910156 -16.957031 L 16.925781 -16.234375 L 18.203125 -14.890625 L 18.597656 -13.644531 L 18.894531 -13.023438 L 18.992188 -12.429688 L 18.925781 -10.429688 L 18.664062 -9.21875 L 18.433594 -8.625 L 18.074219 -8.035156 L 17.875 -7.542969 L 17.417969 -7.019531 L 15.84375 -5.9375 L 15.253906 -5.773438 L 14.761719 -5.542969 Z M 14.105469 -5.410156 "/></g></g></g><g fill="#bdd5ea" fill-opacity="1"><g transform="translate(197.163459, 50.73333)"><g><path d="M 2.363281 -0.953125 L 2.789062 -0.328125 L 3.410156 0.03125 L 10.824219 -0.03125 L 11.414062 0.0664062 L 13.414062 -0.03125 L 15.417969 0.0976562 L 16.039062 0.03125 L 16.726562 -0.296875 L 17.023438 -0.917969 L 17.089844 -1.542969 L 17.054688 -3.574219 L 17.121094 -4.199219 L 16.695312 -4.855469 L 15.710938 -5.183594 L 11.382812 -5.25 L 10.757812 -5.148438 L 10.035156 -5.214844 L 9.316406 -5.148438 L 8.625 -5.542969 L 8.332031 -6.558594 L 8.363281 -8.167969 L 8.660156 -8.855469 L 9.25 -9.21875 L 10.527344 -9.21875 L 11.183594 -9.28125 L 12.921875 -9.183594 L 13.808594 -9.25 L 14.496094 -9.183594 L 15.089844 -9.21875 L 15.746094 -9.578125 L 16.074219 -10.199219 L 16.136719 -12.792969 L 16.074219 -13.449219 L 15.777344 -14.070312 L 15.21875 -14.433594 L 13.90625 -14.464844 L 13.25 -14.398438 L 12.5625 -14.398438 L 11.808594 -14.464844 L 9.21875 -14.433594 L 8.660156 -14.792969 L 8.265625 -15.382812 L 8.199219 -16.398438 L 8.527344 -17.351562 L 9.546875 -17.648438 L 15.84375 -17.679688 L 16.53125 -18.039062 L 16.890625 -18.628906 L 16.828125 -19.976562 L 16.726562 -20.597656 L 16.761719 -21.320312 L 16.859375 -21.945312 L 16.53125 -22.601562 L 15.84375 -22.894531 L 13.21875 -22.925781 L 12.628906 -22.863281 L 11.972656 -22.960938 L 10.527344 -22.894531 L 9.871094 -22.960938 L 8.59375 -22.925781 L 8.003906 -22.992188 L 3.707031 -22.894531 L 2.753906 -22.664062 L 2.425781 -21.945312 L 2.492188 -20.632812 L 2.363281 -19.679688 L 2.492188 -18.007812 L 2.425781 -17.320312 L 2.492188 -16.726562 L 2.492188 -10.855469 L 2.394531 -10.167969 L 2.492188 -8.890625 L 2.425781 -7.578125 L 2.527344 -6.886719 L 2.460938 -6.167969 L 2.492188 -5.542969 L 2.394531 -4.953125 L 2.460938 -4.199219 L 2.460938 -3.542969 L 2.527344 -2.261719 L 2.492188 -1.605469 Z M 2.363281 -0.953125 "/></g></g></g><g fill="#bdd5ea" fill-opacity="1"><g transform="translate(222.515524, 50.73333)"><g><path d="M 8.757812 0.394531 L 11.675781 0.425781 L 13.21875 0.230469 L 14.496094 -0.164062 L 15.582031 -0.851562 L 16.5625 -1.738281 L 17.417969 -2.691406 L 17.976562 -3.9375 L 18.335938 -5.148438 L 18.5 -6.496094 L 18.566406 -8.824219 L 18.894531 -9.710938 L 19.582031 -9.972656 L 20.304688 -10.398438 L 20.632812 -11.019531 L 20.632812 -12.265625 L 20.53125 -12.859375 L 20.566406 -13.875 L 20.238281 -14.792969 L 19.648438 -15.121094 L 18.992188 -15.21875 L 18.304688 -15.152344 L 16.628906 -15.152344 L 15.710938 -15.054688 L 15.054688 -15.152344 L 14.398438 -15.152344 L 13.742188 -14.792969 L 13.351562 -14.234375 L 13.21875 -6.332031 L 12.53125 -5.28125 L 11.9375 -4.921875 L 11.347656 -4.625 L 10.363281 -4.492188 L 9.414062 -4.65625 L 8.824219 -4.855469 L 8.296875 -5.25 L 7.839844 -5.773438 L 7.511719 -6.296875 L 7.445312 -7.378906 L 7.542969 -8.265625 L 7.839844 -8.953125 L 8.199219 -9.382812 L 8.757812 -9.808594 L 9.445312 -10.136719 L 10.332031 -10.265625 L 11.152344 -10.527344 L 11.449219 -11.21875 L 11.382812 -14.039062 L 11.183594 -14.726562 L 10.332031 -15.152344 L 9.414062 -15.382812 L 8.757812 -15.746094 L 8.527344 -16.664062 L 8.59375 -17.582031 L 9.019531 -18.074219 L 9.511719 -18.402344 L 10.398438 -18.53125 L 11.285156 -18.367188 L 11.875 -18.007812 L 12.496094 -17.582031 L 13.21875 -17.285156 L 16.203125 -17.320312 L 17.1875 -17.515625 L 17.484375 -18.203125 L 17.1875 -19.550781 L 16.890625 -20.171875 L 16.53125 -20.730469 L 15.710938 -21.648438 L 14.496094 -22.535156 L 13.941406 -22.796875 L 12.367188 -23.289062 L 10.332031 -23.453125 L 8.726562 -23.355469 L 7.414062 -23.027344 L 6.199219 -22.5 L 5.675781 -22.207031 L 4.59375 -21.320312 L 4.164062 -20.828125 L 3.902344 -20.371094 L 3.476562 -19.8125 L 3.214844 -19.285156 L 3.082031 -18.566406 L 2.917969 -17.976562 L 2.917969 -15.941406 L 3.34375 -14.792969 L 3.902344 -13.679688 L 3.96875 -13.085938 L 3.738281 -12.429688 L 3.3125 -11.875 L 2.886719 -11.449219 L 1.902344 -9.808594 L 1.542969 -8.59375 L 1.476562 -6.953125 L 1.605469 -5.410156 L 2 -4.199219 L 2.328125 -3.542969 L 3.082031 -2.527344 L 3.9375 -1.574219 L 4.492188 -1.148438 L 5.542969 -0.523438 L 6.132812 -0.328125 L 6.789062 -0.0664062 L 8.132812 0.328125 Z M 8.757812 0.394531 "/></g></g></g><g fill="#bdd5ea" fill-opacity="1"><g transform="translate(250.753545, 50.73333)"><g><path d="M 9.511719 0.261719 L 10.464844 0.359375 L 11.511719 0.328125 L 14.726562 -0.296875 L 16.433594 -1.214844 L 17.484375 -1.933594 L 18.402344 -2.984375 L 19.058594 -4.035156 L 19.320312 -4.625 L 19.515625 -5.28125 L 19.613281 -5.871094 L 19.648438 -7.90625 L 19.550781 -8.5625 L 19.386719 -9.183594 L 18.730469 -10.398438 L 17.941406 -11.414062 L 17.382812 -11.875 L 15.644531 -12.660156 L 12.957031 -13.316406 L 9.644531 -13.742188 L 8.265625 -14.234375 L 7.773438 -14.496094 L 7.25 -15.023438 L 7.214844 -15.910156 L 7.316406 -16.761719 L 7.675781 -17.21875 L 8.234375 -17.648438 L 8.691406 -17.84375 L 9.28125 -17.976562 L 11.382812 -18.039062 L 12.101562 -17.777344 L 12.59375 -17.382812 L 13.679688 -16.234375 L 14.695312 -15.910156 L 16.859375 -15.84375 L 17.449219 -15.910156 L 18.074219 -15.84375 L 18.695312 -16.234375 L 18.992188 -16.859375 L 18.730469 -18.140625 L 18.203125 -19.320312 L 17.777344 -19.84375 L 17.449219 -20.371094 L 17.023438 -20.859375 L 14.925781 -22.304688 L 13.121094 -22.925781 L 12.429688 -23.058594 L 11.839844 -23.125 L 11.121094 -23.289062 L 9.28125 -23.253906 L 6.691406 -22.730469 L 6.101562 -22.5 L 5.574219 -22.171875 L 5.050781 -21.976562 L 4.394531 -21.582031 L 3.9375 -21.15625 L 3.34375 -20.761719 L 2.984375 -20.207031 L 2.558594 -19.777344 L 2.328125 -19.1875 L 2 -18.664062 L 1.542969 -16.761719 L 1.574219 -14.5625 L 1.804688 -13.644531 L 2.230469 -12.496094 L 3.050781 -11.414062 L 3.96875 -10.5625 L 5.117188 -9.871094 L 6.988281 -9.25 L 8.167969 -8.988281 L 10.855469 -8.789062 L 11.449219 -8.691406 L 12.101562 -8.660156 L 13.285156 -8.167969 L 13.742188 -7.773438 L 13.90625 -6.921875 L 13.710938 -6.066406 L 13.1875 -5.609375 L 12.660156 -5.3125 L 11.449219 -4.953125 L 10.527344 -4.921875 L 9.546875 -4.984375 L 8.789062 -5.183594 L 8.296875 -5.410156 L 7.707031 -5.773438 L 7.214844 -6.230469 L 6.722656 -6.886719 L 6.066406 -7.152344 L 3.574219 -7.214844 L 2.917969 -7.152344 L 2.261719 -7.183594 L 1.605469 -6.886719 L 1.378906 -6.199219 L 1.441406 -5.476562 L 1.574219 -4.886719 L 2.097656 -3.574219 L 2.917969 -2.558594 L 3.871094 -1.605469 L 4.429688 -1.246094 L 6.789062 -0.164062 L 7.511719 -0.0664062 L 8.132812 0.164062 Z M 9.511719 0.261719 "/></g></g></g><g fill="#bdd5ea" fill-opacity="1"><g transform="translate(278.237285, 50.73333)"><g><path d="M 12.265625 0.394531 L 14.105469 0.359375 L 16.074219 0.0976562 L 18.53125 -0.722656 L 19.613281 -1.3125 L 20.105469 -1.707031 L 20.730469 -2 L 21.648438 -2.789062 L 22.074219 -3.378906 L 22.535156 -3.835938 L 23.976562 -6.035156 L 24.46875 -7.28125 L 24.730469 -8.527344 L 24.765625 -9.117188 L 24.929688 -9.773438 L 24.960938 -10.464844 L 25.09375 -11.414062 L 24.992188 -13.054688 L 24.765625 -14.398438 L 23.945312 -16.859375 L 23.320312 -18.074219 L 22.601562 -19.058594 L 21.679688 -20.074219 L 20.730469 -20.894531 L 19.976562 -21.417969 L 18.992188 -21.84375 L 18.5 -22.207031 L 15.972656 -22.992188 L 14.070312 -23.320312 L 13.1875 -23.355469 L 9.710938 -22.863281 L 7.25 -21.945312 L 6.757812 -21.582031 L 6.167969 -21.289062 L 5.050781 -20.46875 L 3.445312 -18.597656 L 2.425781 -16.859375 L 1.933594 -15.613281 L 1.378906 -13.085938 L 1.277344 -10.429688 L 1.378906 -9.742188 L 1.542969 -9.152344 L 1.605469 -8.527344 L 1.902344 -7.28125 L 3.410156 -4.296875 L 3.804688 -3.902344 L 4.230469 -3.378906 L 4.722656 -2.917969 L 5.085938 -2.492188 L 6.167969 -1.640625 L 8.726562 -0.328125 L 9.675781 0 L 10.398438 0.0664062 L 11.578125 0.328125 Z M 14.105469 -5.410156 L 12.300781 -5.410156 L 11.578125 -5.511719 L 10.398438 -6.003906 L 9.871094 -6.296875 L 8.988281 -7.019531 L 8.5625 -7.480469 L 8.101562 -8.101562 L 7.9375 -8.625 L 7.640625 -9.21875 L 7.378906 -10.429688 L 7.378906 -12.429688 L 7.542969 -13.023438 L 7.640625 -13.644531 L 7.90625 -14.234375 L 8.101562 -14.824219 L 8.890625 -15.875 L 10.527344 -16.992188 L 10.957031 -17.15625 L 12.234375 -17.484375 L 13.152344 -17.546875 L 14.726562 -17.351562 L 15.316406 -17.21875 L 15.910156 -16.957031 L 16.925781 -16.234375 L 18.203125 -14.890625 L 18.597656 -13.644531 L 18.894531 -13.023438 L 18.992188 -12.429688 L 18.925781 -10.429688 L 18.664062 -9.21875 L 18.433594 -8.625 L 18.074219 -8.035156 L 17.875 -7.542969 L 17.417969 -7.019531 L 15.84375 -5.9375 L 15.253906 -5.773438 L 14.761719 -5.542969 Z M 14.105469 -5.410156 "/></g></g></g><g fill="#bdd5ea" fill-opacity="1"><g transform="translate(311.099385, 50.73333)"><g><path d="M 19.351562 -0.523438 L 20.304688 -0.0976562 L 21.15625 0.164062 L 21.910156 -0.195312 L 22.207031 -0.886719 L 22.371094 -9.808594 L 22.238281 -10.726562 L 22.304688 -11.449219 L 22.171875 -15.382812 L 22.273438 -16.695312 L 22.207031 -17.320312 L 22.207031 -18.628906 L 22.335938 -19.285156 L 22.273438 -20.269531 L 22.335938 -21.976562 L 21.945312 -22.566406 L 21.222656 -22.894531 L 20.566406 -22.960938 L 19.941406 -22.960938 L 19.222656 -22.894531 L 18.53125 -22.992188 L 17.941406 -22.925781 L 17.285156 -22.960938 L 16.5 -22.632812 L 16.171875 -21.945312 L 16.136719 -15.972656 L 16.269531 -15.285156 L 16.269531 -14.660156 L 16.136719 -13.972656 L 16.171875 -12.660156 L 16.007812 -12.136719 L 15.546875 -12.265625 L 14.105469 -13.742188 L 13.613281 -14.136719 L 12.464844 -15.316406 L 11.9375 -15.710938 L 11.578125 -16.171875 L 10.890625 -16.890625 L 9.871094 -17.746094 L 9.511719 -18.238281 L 8.890625 -18.664062 L 8.5625 -19.15625 L 8.003906 -19.550781 L 7.578125 -20.105469 L 5.804688 -21.910156 L 4.492188 -22.796875 L 3.609375 -23.058594 L 2.820312 -22.664062 L 2.394531 -22.042969 L 2.460938 -17.449219 L 2.394531 -16.792969 L 2.492188 -15.449219 L 2.425781 -14.859375 L 2.460938 -14.167969 L 2.363281 -13.480469 L 2.492188 -8.789062 L 2.425781 -8.199219 L 2.425781 -7.578125 L 2.363281 -6.855469 L 2.363281 -6.230469 L 2.460938 -5.542969 L 2.425781 -4.199219 L 2.492188 -3.542969 L 2.394531 -2.296875 L 2.492188 -1.640625 L 2.492188 -1.015625 L 2.789062 -0.296875 L 3.410156 0.0664062 L 4.527344 0 L 6.167969 0.0976562 L 6.855469 0 L 7.609375 0.0664062 L 8.265625 -0.261719 L 8.5625 -0.917969 L 8.460938 -1.574219 L 8.5625 -9.609375 L 8.429688 -10.300781 L 8.757812 -10.691406 L 9.183594 -10.59375 L 13.875 -6.003906 L 14.398438 -5.574219 L 17.582031 -2.394531 L 18.007812 -1.871094 L 18.53125 -1.441406 L 18.925781 -0.953125 Z M 19.351562 -0.523438 "/></g></g></g><g fill="#bdd5ea" fill-opacity="1"><g transform="translate(342.387326, 50.73333)"><g><path d="M 9.511719 0.261719 L 10.464844 0.359375 L 11.511719 0.328125 L 14.726562 -0.296875 L 16.433594 -1.214844 L 17.484375 -1.933594 L 18.402344 -2.984375 L 19.058594 -4.035156 L 19.320312 -4.625 L 19.515625 -5.28125 L 19.613281 -5.871094 L 19.648438 -7.90625 L 19.550781 -8.5625 L 19.386719 -9.183594 L 18.730469 -10.398438 L 17.941406 -11.414062 L 17.382812 -11.875 L 15.644531 -12.660156 L 12.957031 -13.316406 L 9.644531 -13.742188 L 8.265625 -14.234375 L 7.773438 -14.496094 L 7.25 -15.023438 L 7.214844 -15.910156 L 7.316406 -16.761719 L 7.675781 -17.21875 L 8.234375 -17.648438 L 8.691406 -17.84375 L 9.28125 -17.976562 L 11.382812 -18.039062 L 12.101562 -17.777344 L 12.59375 -17.382812 L 13.679688 -16.234375 L 14.695312 -15.910156 L 16.859375 -15.84375 L 17.449219 -15.910156 L 18.074219 -15.84375 L 18.695312 -16.234375 L 18.992188 -16.859375 L 18.730469 -18.140625 L 18.203125 -19.320312 L 17.777344 -19.84375 L 17.449219 -20.371094 L 17.023438 -20.859375 L 14.925781 -22.304688 L 13.121094 -22.925781 L 12.429688 -23.058594 L 11.839844 -23.125 L 11.121094 -23.289062 L 9.28125 -23.253906 L 6.691406 -22.730469 L 6.101562 -22.5 L 5.574219 -22.171875 L 5.050781 -21.976562 L 4.394531 -21.582031 L 3.9375 -21.15625 L 3.34375 -20.761719 L 2.984375 -20.207031 L 2.558594 -19.777344 L 2.328125 -19.1875 L 2 -18.664062 L 1.542969 -16.761719 L 1.574219 -14.5625 L 1.804688 -13.644531 L 2.230469 -12.496094 L 3.050781 -11.414062 L 3.96875 -10.5625 L 5.117188 -9.871094 L 6.988281 -9.25 L 8.167969 -8.988281 L 10.855469 -8.789062 L 11.449219 -8.691406 L 12.101562 -8.660156 L 13.285156 -8.167969 L 13.742188 -7.773438 L 13.90625 -6.921875 L 13.710938 -6.066406 L 13.1875 -5.609375 L 12.660156 -5.3125 L 11.449219 -4.953125 L 10.527344 -4.921875 L 9.546875 -4.984375 L 8.789062 -5.183594 L 8.296875 -5.410156 L 7.707031 -5.773438 L 7.214844 -6.230469 L 6.722656 -6.886719 L 6.066406 -7.152344 L 3.574219 -7.214844 L 2.917969 -7.152344 L 2.261719 -7.183594 L 1.605469 -6.886719 L 1.378906 -6.199219 L 1.441406 -5.476562 L 1.574219 -4.886719 L 2.097656 -3.574219 L 2.917969 -2.558594 L 3.871094 -1.605469 L 4.429688 -1.246094 L 6.789062 -0.164062 L 7.511719 -0.0664062 L 8.132812 0.164062 Z M 9.511719 0.261719 "/></g></g></g><g fill="#577399" fill-opacity="1"><g transform="translate(215.815974, 78.484888)"><g><path d="M 6.152344 0.0742188 L 6.886719 0.0351562 L 7.214844 -0.148438 L 7.398438 -0.496094 L 7.398438 -2.3125 L 7.179688 -2.664062 L 6.777344 -2.863281 L 6.390625 -2.863281 L 5.949219 -3.011719 L 5.730469 -3.433594 L 5.785156 -3.78125 L 5.765625 -5.800781 L 5.800781 -6.207031 L 5.730469 -7.527344 L 5.800781 -9.382812 L 5.929688 -9.804688 L 6.335938 -9.96875 L 6.703125 -10.023438 L 7.085938 -10.171875 L 7.269531 -10.464844 L 7.289062 -12.285156 L 7.070312 -12.632812 L 6.738281 -12.835938 L 4.515625 -12.835938 L 4.1875 -12.871094 L 3.820312 -12.796875 L 2.3125 -12.796875 L 1.964844 -12.851562 L 1.542969 -12.851562 L 1.175781 -12.667969 L 0.992188 -12.230469 L 1.046875 -10.871094 L 1.011719 -10.519531 L 1.210938 -10.152344 L 1.617188 -9.953125 L 1.984375 -9.953125 L 2.332031 -9.730469 L 2.496094 -9.234375 L 2.550781 -3.597656 L 2.351562 -3.046875 L 1.136719 -2.679688 L 0.9375 -2.351562 L 0.882812 -0.660156 L 1.066406 -0.164062 L 1.433594 0 L 1.78125 0 L 2.128906 -0.0351562 L 2.664062 0.0351562 L 3.230469 0.0195312 L 3.597656 -0.0195312 L 4.332031 0.0546875 L 4.882812 -0.0195312 L 5.785156 -0.0195312 Z M 6.152344 0.0742188 "/></g></g></g><g fill="#577399" fill-opacity="1"><g transform="translate(238.841287, 78.484888)"><g><path d="M 10.832031 -0.292969 L 11.367188 -0.0546875 L 11.84375 0.09375 L 12.265625 -0.109375 L 12.429688 -0.496094 L 12.523438 -5.488281 L 12.449219 -6.003906 L 12.484375 -6.40625 L 12.414062 -8.613281 L 12.46875 -9.347656 L 12.429688 -9.695312 L 12.429688 -10.429688 L 12.503906 -10.796875 L 12.46875 -11.347656 L 12.503906 -12.300781 L 12.285156 -12.632812 L 11.878906 -12.816406 L 11.511719 -12.851562 L 11.164062 -12.851562 L 10.761719 -12.816406 L 10.375 -12.871094 L 10.042969 -12.835938 L 9.675781 -12.851562 L 9.234375 -12.667969 L 9.050781 -12.285156 L 9.035156 -8.941406 L 9.105469 -8.554688 L 9.105469 -8.207031 L 9.035156 -7.820312 L 9.050781 -7.085938 L 8.960938 -6.792969 L 8.703125 -6.867188 L 7.894531 -7.695312 L 7.621094 -7.914062 L 6.976562 -8.574219 L 6.683594 -8.796875 L 6.480469 -9.050781 L 6.097656 -9.457031 L 5.527344 -9.933594 L 5.324219 -10.210938 L 4.976562 -10.449219 L 4.792969 -10.722656 L 4.480469 -10.945312 L 4.242188 -11.253906 L 3.25 -12.265625 L 2.515625 -12.761719 L 2.019531 -12.90625 L 1.578125 -12.6875 L 1.339844 -12.339844 L 1.378906 -9.769531 L 1.339844 -9.402344 L 1.394531 -8.648438 L 1.359375 -8.316406 L 1.378906 -7.933594 L 1.320312 -7.546875 L 1.394531 -4.921875 L 1.359375 -4.589844 L 1.359375 -4.242188 L 1.320312 -3.835938 L 1.320312 -3.488281 L 1.378906 -3.101562 L 1.359375 -2.351562 L 1.394531 -1.984375 L 1.339844 -1.285156 L 1.394531 -0.917969 L 1.394531 -0.570312 L 1.5625 -0.164062 L 1.910156 0.0351562 L 2.535156 0 L 3.453125 0.0546875 L 3.835938 0 L 4.261719 0.0351562 L 4.628906 -0.148438 L 4.792969 -0.515625 L 4.738281 -0.882812 L 4.792969 -5.378906 L 4.71875 -5.765625 L 4.902344 -5.984375 L 5.140625 -5.929688 L 7.765625 -3.359375 L 8.0625 -3.121094 L 9.839844 -1.339844 L 10.082031 -1.046875 L 10.375 -0.808594 L 10.59375 -0.53125 Z M 10.832031 -0.292969 "/></g></g></g><g fill="#577399" fill-opacity="1"><g transform="translate(267.375041, 78.484888)"><g><path d="M 6.757812 0.183594 L 7.859375 0.238281 L 9.640625 -0.128906 L 10.648438 -0.570312 L 10.925781 -0.753906 L 11.253906 -0.953125 L 11.566406 -1.175781 L 11.804688 -1.414062 L 12.007812 -1.726562 L 12.320312 -1.964844 L 12.871094 -2.917969 L 13.035156 -3.25 L 13.128906 -3.597656 L 13.257812 -3.964844 L 13.3125 -4.316406 L 13.203125 -4.644531 L 12.742188 -4.847656 L 10.777344 -4.867188 L 10.375 -4.683594 L 10.007812 -4.332031 L 9.859375 -4.019531 L 9.164062 -3.269531 L 8.539062 -2.957031 L 8.171875 -2.847656 L 7.785156 -2.808594 L 6.757812 -2.828125 L 5.765625 -3.195312 L 5.417969 -3.359375 L 5.179688 -3.617188 L 4.5 -4.5 L 4.351562 -4.8125 L 4.132812 -5.527344 L 4.078125 -6.390625 L 4.09375 -6.976562 L 4.222656 -7.308594 L 4.242188 -7.675781 L 4.351562 -8.003906 L 4.664062 -8.667969 L 5.121094 -9.234375 L 5.730469 -9.675781 L 6.078125 -9.824219 L 6.71875 -10.007812 L 7.859375 -9.96875 L 8.554688 -9.839844 L 8.941406 -9.714844 L 9.472656 -9.273438 L 9.75 -8.980469 L 9.914062 -8.667969 L 10.246094 -8.316406 L 10.648438 -8.152344 L 12.503906 -8.117188 L 12.871094 -8.152344 L 13.164062 -8.316406 L 13.273438 -8.703125 L 13.128906 -9.070312 L 13.074219 -9.402344 L 12.78125 -10.097656 L 12.101562 -11.035156 L 11.144531 -11.898438 L 10.742188 -12.171875 L 9.695312 -12.652344 L 8.980469 -12.851562 L 8.0625 -12.980469 L 6.390625 -12.980469 L 6.078125 -12.945312 L 5.730469 -12.835938 L 5.011719 -12.6875 L 4.664062 -12.558594 L 4.386719 -12.394531 L 4.058594 -12.265625 L 2.773438 -11.4375 L 2.550781 -11.144531 L 2.054688 -10.6875 L 1.835938 -10.375 L 0.992188 -8.722656 L 0.660156 -6.425781 L 0.734375 -5.839844 L 0.734375 -5.105469 L 0.917969 -4.386719 L 1.066406 -4.039062 L 1.121094 -3.710938 L 1.304688 -3.378906 L 1.433594 -3.066406 L 2.167969 -2 L 2.828125 -1.359375 L 3.140625 -1.15625 L 3.414062 -0.9375 L 4.664062 -0.257812 L 5.03125 -0.128906 L 5.304688 -0.0546875 L 5.691406 0.0742188 L 6.078125 0.109375 L 6.40625 0.183594 Z M 6.757812 0.183594 "/></g></g></g><g fill="#577399" fill-opacity="1"><g transform="translate(296.074053, 78.484888)"><g><path d="M 2.3125 0.0742188 L 2.773438 0.09375 L 2.972656 0.0351562 L 3.15625 0.0351562 L 3.359375 -0.0351562 L 3.597656 -0.183594 L 3.746094 -0.257812 L 3.910156 -0.402344 L 4.078125 -0.585938 L 4.203125 -0.769531 L 4.371094 -1.339844 L 4.386719 -1.761719 L 4.316406 -1.984375 L 4.277344 -2.183594 L 4.167969 -2.421875 L 4.039062 -2.605469 L 3.910156 -2.71875 L 3.78125 -2.902344 L 3.582031 -3.011719 L 3.414062 -3.121094 L 3.195312 -3.15625 L 2.957031 -3.25 L 2.753906 -3.269531 L 2.332031 -3.25 L 1.929688 -3.175781 L 1.6875 -3.101562 L 1.542969 -3.03125 L 1.175781 -2.71875 L 0.882812 -2.40625 L 0.828125 -2.222656 L 0.734375 -2.019531 L 0.753906 -1.136719 L 0.808594 -0.9375 L 0.898438 -0.734375 L 1.011719 -0.585938 L 1.210938 -0.421875 L 1.304688 -0.277344 L 1.726562 -0.0351562 L 1.890625 0.0195312 L 2.128906 0.0742188 Z M 2.3125 0.0742188 "/></g></g></g></svg>